<?xml version="1.0" encoding="UTF-8"?>
<svg width="20px" height="20px" viewBox="0 0 20 20" version="1.1" xmlns="http://www.w3.org/2000/svg" xmlns:xlink="http://www.w3.org/1999/xlink">
    <!-- Generator: Sketch 51.1 (57501) - http://www.bohemiancoding.com/sketch -->
    <title>新增</title>
    <desc>Created with Sketch.</desc>
    <defs></defs>
    <g id="中建" stroke="none" stroke-width="1" fill="none" fill-rule="evenodd">
        <g id="设备飞检-01" transform="translate(-118.000000, -237.000000)">
            <g id="Group-5" transform="translate(107.000000, 229.000000)">
                <g id="新增" transform="translate(11.000000, 8.000000)">
                    <path d="M9.99831692,0 C4.48539931,0 0,4.48558805 0,9.99873764 C0,15.5135704 4.48539931,20 9.99831692,20 C15.5137592,20 20,15.5135704 20,9.99873764 C20,4.48558805 15.5137592,0 9.99831692,0" id="Fill-1" fill="#4A90E2"></path>
                    <path d="M15.0229885,9.43861701 L10.1149425,9.43861701 L10.1149425,4.41195402 C10.1149425,4.1845554 9.93471264,4 9.71264368,4 C9.49057471,4 9.31034483,4.1845554 9.31034483,4.41195402 L9.31034483,9.43861701 L4.40229885,9.43861701 C4.17942529,9.43861701 4,9.62317241 4,9.85057103 C4,10.0779697 4.17942529,10.2625251 4.40229885,10.2625251 L9.31034483,10.2625251 L9.31034483,15.2883641 C9.31034483,15.5157628 9.49057471,15.7003182 9.71264368,15.7003182 C9.93471264,15.7003182 10.1149425,15.5157628 10.1149425,15.2883641 L10.1149425,10.2625251 L15.0229885,10.2625251 C15.2450575,10.2625251 15.4252874,10.0779697 15.4252874,9.85057103 C15.4252874,9.62317241 15.2450575,9.43861701 15.0229885,9.43861701" id="Fill-4" fill="#FFFFFF"></path>
                </g>
            </g>
        </g>
    </g>
</svg>