<?xml version="1.0" encoding="UTF-8"?>
<svg width="40px" height="32px" viewBox="0 0 40 32" version="1.1" xmlns="http://www.w3.org/2000/svg" xmlns:xlink="http://www.w3.org/1999/xlink">
    <!-- Generator: Sketch 51.1 (57501) - http://www.bohemiancoding.com/sketch -->
    <title>单标-相机</title>
    <desc>Created with Sketch.</desc>
    <defs></defs>
    <g id="中建" stroke="none" stroke-width="1" fill="none" fill-rule="evenodd">
        <g id="设备飞检-02-图标版" transform="translate(-78.000000, -974.000000)" fill="#C1C1C1">
            <g id="添加图片" transform="translate(54.000000, 955.000000)">
                <g id="单标-相机" transform="translate(24.000000, 19.000000)">
                    <path d="M38.3333333,24.1666667 C38.3333333,27.3833333 35.7158333,30 32.5,30 L7.5,30 C4.28416667,30 1.66666667,27.3833333 1.66666667,24.1666667 L1.66666667,6.66666667 L11.2741667,6.66666667 L14.6125,1.66666667 L25,1.66666667 L28.745,6.66666667 L38.3333333,6.66666667 L38.3333333,24.1666667 Z M29.5783333,5 L25.8333333,0 L13.7208333,0 L10.3825,5 L0,5 L0,24.1666667 C0,28.3016667 3.36416667,31.6666667 7.5,31.6666667 L32.5,31.6666667 C36.6358333,31.6666667 40,28.3016667 40,24.1666667 L40,5 L29.5783333,5 Z" id="Fill-1"></path>
                    <polygon id="Fill-3" points="0 3.33333333 6.66666667 3.33333333 6.66666667 1.66666667 0 1.66666667"></polygon>
                    <path d="M20,25 C16.3241667,25 13.3333333,22.0091667 13.3333333,18.3333333 C13.3333333,14.6575 16.3241667,11.6666667 20,11.6666667 C23.6758333,11.6666667 26.6666667,14.6575 26.6666667,18.3333333 C26.6666667,22.0091667 23.6758333,25 20,25 M20,10 C15.405,10 11.6666667,13.7383333 11.6666667,18.3333333 C11.6666667,22.9283333 15.405,26.6666667 20,26.6666667 C24.595,26.6666667 28.3333333,22.9283333 28.3333333,18.3333333 C28.3333333,13.7383333 24.595,10 20,10" id="Fill-5"></path>
                    <path d="M34.1666667,12.5 C35.0866667,12.5 35.8333333,11.7533333 35.8333333,10.8333333 C35.8333333,9.91333333 35.0866667,9.16666667 34.1666667,9.16666667 C33.2466667,9.16666667 32.5,9.91333333 32.5,10.8333333 C32.5,11.7533333 33.2466667,12.5 34.1666667,12.5" id="Fill-6"></path>
                </g>
            </g>
        </g>
    </g>
</svg>