<?xml version="1.0" encoding="UTF-8"?>
<svg width="148px" height="148px" viewBox="0 0 148 148" version="1.1" xmlns="http://www.w3.org/2000/svg" xmlns:xlink="http://www.w3.org/1999/xlink">
    <!-- Generator: Sketch 51.1 (57501) - http://www.bohemiancoding.com/sketch -->
    <title>分开-底2</title>
    <desc>Created with Sketch.</desc>
    <defs></defs>
    <g id="中建" stroke="none" stroke-width="1" fill="none" fill-rule="evenodd">
        <g id="设备飞检-03-列表" transform="translate(-184.000000, -394.000000)" fill="#F9F9F9">
            <g id="Group-5" transform="translate(9.000000, 350.000000)">
                <g id="卡片列表背景">
                    <g id="分开-底2" transform="translate(175.000000, 44.000000)">
                        <path d="M141.833333,95.5864167 C141.833333,104.084083 134.9205,111 126.41975,111 L117.166667,111 L117.166667,30.8333333 L37,30.8333333 L37,21.58025 C37,13.0825833 43.9128333,6.16666667 52.4135833,6.16666667 L141.833333,6.16666667 L141.833333,95.5864167 Z M111,126.36425 C111,134.895833 104.0625,141.833333 95.5309167,141.833333 L6.16666667,141.833333 L6.16666667,52.4135833 C6.16666667,43.9159167 13.0795,37 21.58025,37 L111,37 L111,126.36425 Z M52.4135833,0 C40.515,0 30.8333333,9.68166667 30.8333333,21.58025 L30.8333333,30.8333333 L21.58025,30.8333333 C9.68166667,30.8333333 0,40.515 0,52.4135833 L0,148 L95.5309167,148 C107.463417,148 117.166667,138.29675 117.166667,126.36425 L117.166667,117.166667 L126.41975,117.166667 C138.318333,117.166667 148,107.485 148,95.5864167 L148,0 L52.4135833,0 Z" id="Fill-1"></path>
                    </g>
                </g>
            </g>
        </g>
    </g>
</svg>