<?xml version="1.0" encoding="UTF-8"?>
<svg width="270px" height="46px" viewBox="0 0 270 46" version="1.1" xmlns="http://www.w3.org/2000/svg" xmlns:xlink="http://www.w3.org/1999/xlink">
    <!-- Generator: Sketch 51.1 (57501) - http://www.bohemiancoding.com/sketch -->
    <title>分开-底</title>
    <desc>Created with Sketch.</desc>
    <defs></defs>
    <g id="中建" stroke="none" stroke-width="1" fill="none" fill-rule="evenodd">
        <g id="设备飞检-03-列表" transform="translate(-30.000000, -517.000000)" fill="#F4F4F4" fill-rule="nonzero">
            <g id="Group-5" transform="translate(9.000000, 350.000000)">
                <g id="卡片列表背景">
                    <g id="分开-底" transform="translate(8.000000, 167.000000)">
                        <rect id="Rectangle-3" x="0" y="6" width="342" height="40" rx="5"></rect>
                        <circle id="Oval" cx="18" cy="5" r="5"></circle>
                        <circle id="Oval" cx="36" cy="5" r="5"></circle>
                        <circle id="Oval" cx="54" cy="5" r="5"></circle>
                        <circle id="Oval" cx="72" cy="5" r="5"></circle>
                        <circle id="Oval" cx="90" cy="5" r="5"></circle>
                        <circle id="Oval" cx="108" cy="5" r="5"></circle>
                        <circle id="Oval" cx="126" cy="5" r="5"></circle>
                        <circle id="Oval" cx="144" cy="5" r="5"></circle>
                        <circle id="Oval" cx="162" cy="5" r="5"></circle>
                        <circle id="Oval" cx="180" cy="5" r="5"></circle>
                        <circle id="Oval" cx="198" cy="5" r="5"></circle>
                        <circle id="Oval" cx="216" cy="5" r="5"></circle>
                        <circle id="Oval" cx="234" cy="5" r="5"></circle>
                        <circle id="Oval" cx="252" cy="5" r="5"></circle>
                        <circle id="Oval" cx="270" cy="5" r="5"></circle>
                        <rect id="Rectangle-4" x="0" y="4" width="342" height="7"></rect>
                    </g>
                </g>
            </g>
        </g>
    </g>
</svg>