<?xml version="1.0" encoding="UTF-8"?>
<svg width="90px" height="70px" viewBox="0 0 90 70" version="1.1" xmlns="http://www.w3.org/2000/svg" xmlns:xlink="http://www.w3.org/1999/xlink">
    <!-- Generator: Sketch 51.1 (57501) - http://www.bohemiancoding.com/sketch -->
    <title>添加图片</title>
    <desc>Created with Sketch.</desc>
    <defs></defs>
    <g id="中建" stroke="none" stroke-width="1" fill="none" fill-rule="evenodd">
        <g id="设备飞检-02-图标版" transform="translate(-54.000000, -955.000000)">
            <g id="添加图片" transform="translate(54.000000, 955.000000)">
                <rect id="Rectangle-6" fill="#EFEFEF" fill-rule="nonzero" x="0" y="0" width="90" height="70"></rect>
                <path d="M62.3333333,43.1666667 C62.3333333,46.3833333 59.7158333,49 56.5,49 L31.5,49 C28.2841667,49 25.6666667,46.3833333 25.6666667,43.1666667 L25.6666667,25.6666667 L35.2741667,25.6666667 L38.6125,20.6666667 L49,20.6666667 L52.745,25.6666667 L62.3333333,25.6666667 L62.3333333,43.1666667 Z M53.5783333,24 L49.8333333,19 L37.7208333,19 L34.3825,24 L24,24 L24,43.1666667 C24,47.3016667 27.3641667,50.6666667 31.5,50.6666667 L56.5,50.6666667 C60.6358333,50.6666667 64,47.3016667 64,43.1666667 L64,24 L53.5783333,24 Z" id="Fill-1" fill="#C1C1C1"></path>
                <polygon id="Fill-3" fill="#C1C1C1" points="24 22.3333333 30.6666667 22.3333333 30.6666667 20.6666667 24 20.6666667"></polygon>
                <path d="M44,44 C40.3241667,44 37.3333333,41.0091667 37.3333333,37.3333333 C37.3333333,33.6575 40.3241667,30.6666667 44,30.6666667 C47.6758333,30.6666667 50.6666667,33.6575 50.6666667,37.3333333 C50.6666667,41.0091667 47.6758333,44 44,44 M44,29 C39.405,29 35.6666667,32.7383333 35.6666667,37.3333333 C35.6666667,41.9283333 39.405,45.6666667 44,45.6666667 C48.595,45.6666667 52.3333333,41.9283333 52.3333333,37.3333333 C52.3333333,32.7383333 48.595,29 44,29" id="Fill-5" fill="#C1C1C1"></path>
                <path d="M58.1666667,31.5 C59.0866667,31.5 59.8333333,30.7533333 59.8333333,29.8333333 C59.8333333,28.9133333 59.0866667,28.1666667 58.1666667,28.1666667 C57.2466667,28.1666667 56.5,28.9133333 56.5,29.8333333 C56.5,30.7533333 57.2466667,31.5 58.1666667,31.5" id="Fill-6" fill="#C1C1C1"></path>
            </g>
        </g>
    </g>
</svg>