<?xml version="1.0" encoding="UTF-8"?>
<svg width="20px" height="22px" viewBox="0 0 20 22" version="1.1" xmlns="http://www.w3.org/2000/svg" xmlns:xlink="http://www.w3.org/1999/xlink">
    <!-- Generator: Sketch 51.1 (57501) - http://www.bohemiancoding.com/sketch -->
    <title>罚款总金额ico</title>
    <desc>Created with Sketch.</desc>
    <defs></defs>
    <g id="中建" stroke="none" stroke-width="1" fill="none" fill-rule="evenodd">
        <g id="设备飞检-02-图标版" transform="translate(-20.000000, -669.000000)">
            <g id="罚款总金额ico" transform="translate(20.000000, 669.000000)">
                <path d="M10,1 C4.48625,1 0,5.48625 0,11 C0,16.51375 4.48625,21 10,21 C15.51375,21 20,16.51375 20,11 C20,5.48625 15.51375,1 10,1" id="Fill-1" fill="#F5A623"></path>
                <path d="M9.84783333,15.9979583 L10.3711667,11.4229583 C12.1590833,12.2475417 12.4999167,12.9075417 12.4999167,13.8675417 C12.4999167,15.3142083 10.96825,15.9767083 9.84783333,15.9979583 M7.94825,7.92004167 C7.94825,6.98504167 9.05116667,6.034625 10.1515833,6.00295833 L9.67616667,10.1667083 C8.51991667,9.530875 7.94825,8.79254167 7.94825,7.92004167 M10.4703333,10.554625 L10.9799167,6.09504167 C11.56575,6.23254167 12.0828333,6.49795833 12.4974167,6.740875 L12.9190833,6.02170833 C12.42575,5.73254167 11.8024167,5.41504167 11.0749167,5.26129167 L11.247,3.755875 L10.4195,3.660875 L10.2474167,5.16879167 C10.2340833,5.168375 10.2211667,5.16670833 10.20825,5.16670833 C8.61825,5.16670833 7.11491667,6.504625 7.11491667,7.92004167 C7.11491667,9.20545833 7.92241667,10.234625 9.5745,11.0567083 L9.017,15.9342083 C8.30741667,15.8075417 7.82033333,15.519625 7.37783333,15.257125 L7.29533333,15.2079583 L6.87116667,15.925875 L6.95283333,15.9737917 C7.4495,16.268375 8.04325,16.6162917 8.922,16.762125 L8.75283333,18.2442083 L9.58033333,18.3392083 L9.75241667,16.8317083 C9.76658333,16.8317083 9.77783333,16.833375 9.79158333,16.833375 C11.5324167,16.833375 13.33325,15.7242083 13.33325,13.8675417 C13.33325,12.354625 12.5790833,11.4800417 10.4703333,10.554625" id="Fill-3" fill="#FFFFFF"></path>
            </g>
        </g>
    </g>
</svg>