<?xml version="1.0" encoding="UTF-8"?>
<svg width="20px" height="22px" viewBox="0 0 20 22" version="1.1" xmlns="http://www.w3.org/2000/svg" xmlns:xlink="http://www.w3.org/1999/xlink">
    <!-- Generator: Sketch 51.1 (57501) - http://www.bohemiancoding.com/sketch -->
    <title>罚款明细ico</title>
    <desc>Created with Sketch.</desc>
    <defs></defs>
    <g id="中建" stroke="none" stroke-width="1" fill="none" fill-rule="evenodd">
        <g id="设备飞检-02-图标版" transform="translate(-20.000000, -711.000000)">
            <g id="罚款明细ico" transform="translate(20.000000, 711.000000)">
                <path d="M19.1666667,11.75 C19.1666667,12.4391667 18.6058333,13 17.9166667,13 L17.5,13 L17.5,5.5 L5.83333333,5.5 L5.83333333,5.08333333 C5.83333333,4.39416667 6.39416667,3.83333333 7.08333333,3.83333333 L19.1666667,3.83333333 L19.1666667,11.75 Z M16.6666667,14.25 C16.6666667,14.9391667 16.1058333,15.5 15.4166667,15.5 L15,15.5 L15,8 L3.33333333,8 L3.33333333,7.58333333 C3.33333333,6.89416667 3.89416667,6.33333333 4.58333333,6.33333333 L16.6666667,6.33333333 L16.6666667,14.25 Z M7.08333333,3 C5.93458333,3 5,3.93458333 5,5.08333333 L5,5.5 L4.58333333,5.5 C3.43458333,5.5 2.5,6.43458333 2.5,7.58333333 L2.5,8 L2.25416667,8 C1.01125,8 0,9.01125 0,10.2541667 L0,18.8333333 L12.7458333,18.8333333 C13.98875,18.8333333 15,17.8220833 15,16.5791667 L15,16.3333333 L15.4166667,16.3333333 C16.5654167,16.3333333 17.5,15.39875 17.5,14.25 L17.5,13.8333333 L17.9166667,13.8333333 C19.0654167,13.8333333 20,12.89875 20,11.75 L20,3 L7.08333333,3 Z" id="Fill-1" fill="#726DF1"></path>
                <path d="M2.5,10.5 L6.5,10.5" id="Line-5" stroke="#DCDBFF" stroke-linecap="square" fill-rule="nonzero"></path>
                <path d="M2.5,12.5 L9.5,12.5" id="Line-5" stroke="#DCDBFF" stroke-linecap="square" fill-rule="nonzero"></path>
                <path d="M2.5,14.5 L11.5,14.5" id="Line-5" stroke="#DCDBFF" stroke-linecap="square" fill-rule="nonzero"></path>
            </g>
        </g>
    </g>
</svg>