<?xml version="1.0" encoding="UTF-8"?>
<svg width="20px" height="34px" viewBox="0 0 20 34" version="1.1" xmlns="http://www.w3.org/2000/svg" xmlns:xlink="http://www.w3.org/1999/xlink">
    <!-- Generator: Sketch 51.1 (57501) - http://www.bohemiancoding.com/sketch -->
    <title>罚款</title>
    <desc>Created with Sketch.</desc>
    <defs></defs>
    <g id="中建" stroke="none" stroke-width="1" fill="none" fill-rule="evenodd">
        <g id="安全隐患整改" transform="translate(-307.000000, -77.000000)">
            <g id="Group-5" transform="translate(20.000000, 77.000000)">
                <g id="罚款" transform="translate(287.000000, 0.000000)">
                    <polygon id="Fill-1" fill="#F5A623" transform="translate(10.000000, 17.000000) rotate(-90.000000) translate(-10.000000, -17.000000) " points="-7 7 -3.98264667 16.9977592 -7 27 23.9829247 27 27 16.9977592 23.9829247 7"></polygon>
                    <path d="M5.774,10.309 L7.889,10.309 L7.889,12.91 C8.276,12.703 8.699,12.451 9.149,12.163 L9.311,12.829 C8.681,13.225 8.024,13.567 7.322,13.873 L7.07,13.297 C7.196,13.198 7.259,13.09 7.259,12.964 L7.259,10.921 L5.774,10.921 L5.774,10.309 Z M7.034,8.509 C7.565,8.779 8.06,9.112 8.51,9.49 L8.114,9.931 C7.646,9.535 7.133,9.202 6.593,8.914 L7.034,8.509 Z M10.058,9.121 L10.679,9.121 L10.679,12.217 L10.058,12.217 L10.058,9.121 Z M11.885,13.873 L10.841,13.873 L10.706,13.234 C11.039,13.261 11.354,13.279 11.66,13.279 C11.975,13.279 12.137,13.108 12.137,12.766 L12.137,8.662 L12.794,8.662 L12.794,12.919 C12.794,13.549 12.488,13.873 11.885,13.873 Z M6.107,6.007 L12.893,6.007 L12.893,8.212 L6.107,8.212 L6.107,6.007 Z M12.263,7.672 L12.263,6.547 L10.832,6.547 L10.832,7.672 L12.263,7.672 Z M10.238,7.672 L10.238,6.547 L8.762,6.547 L8.762,7.672 L10.238,7.672 Z M8.168,7.672 L8.168,6.547 L6.737,6.547 L6.737,7.672 L8.168,7.672 Z M5.441,19.466 L7.349,19.466 L7.349,18.647 L7.961,18.647 L7.961,19.466 L9.617,19.466 L9.617,20.042 L7.961,20.042 L7.961,20.834 L9.41,20.834 L9.41,21.392 L5.756,21.392 L5.756,20.834 L7.349,20.834 L7.349,20.042 L5.441,20.042 L5.441,19.466 Z M6.053,22.103 L9.131,22.103 L9.131,22.67 L6.053,22.67 L6.053,22.103 Z M5.504,23.354 L9.716,23.354 L9.716,23.921 L7.952,23.921 L7.952,26.171 C7.952,26.639 7.7,26.882 7.196,26.882 L6.431,26.882 L6.305,26.297 C6.539,26.324 6.773,26.342 6.989,26.342 C7.223,26.342 7.34,26.234 7.34,26.027 L7.34,23.921 L5.504,23.921 L5.504,23.354 Z M6.179,24.353 L6.701,24.452 C6.503,25.154 6.224,25.757 5.864,26.27 L5.378,25.955 C5.747,25.469 6.017,24.938 6.179,24.353 Z M8.987,24.281 C9.203,24.695 9.401,25.136 9.572,25.613 L9.068,25.838 C8.888,25.316 8.681,24.848 8.465,24.452 L8.987,24.281 Z M10.517,18.674 L11.111,18.773 C11.057,19.241 10.985,19.664 10.904,20.06 L13.28,20.06 L13.28,20.456 C13.163,21.221 13.01,21.977 12.812,22.724 L12.209,22.553 C12.389,21.995 12.542,21.365 12.659,20.645 L10.76,20.645 C10.553,21.401 10.283,22.013 9.95,22.481 L9.455,22.13 C10.004,21.302 10.355,20.15 10.517,18.674 Z M11.12,21.356 L11.714,21.356 C11.714,21.959 11.678,22.517 11.624,23.021 C12.02,24.443 12.695,25.577 13.649,26.414 L13.217,26.909 C12.443,26.153 11.849,25.235 11.435,24.137 C11.417,24.2 11.408,24.263 11.39,24.335 C11.111,25.397 10.481,26.261 9.491,26.945 L9.095,26.468 C9.95,25.874 10.517,25.136 10.796,24.236 C11.012,23.48 11.12,22.526 11.12,21.356 Z" fill="#FFFFFF"></path>
                </g>
            </g>
        </g>
    </g>
</svg>