<?xml version="1.0" encoding="UTF-8"?>
<svg width="20px" height="34px" viewBox="0 0 20 34" version="1.1" xmlns="http://www.w3.org/2000/svg" xmlns:xlink="http://www.w3.org/1999/xlink">
    <!-- Generator: Sketch 51.1 (57501) - http://www.bohemiancoding.com/sketch -->
    <title>停工</title>
    <desc>Created with Sketch.</desc>
    <defs></defs>
    <g id="中建" stroke="none" stroke-width="1" fill="none" fill-rule="evenodd">
        <g id="安全隐患整改" transform="translate(-277.000000, -77.000000)">
            <g id="Group-5" transform="translate(20.000000, 77.000000)">
                <g id="停工" transform="translate(257.000000, 0.000000)">
                    <polygon id="Fill-1" fill="#A6A4BA" transform="translate(10.000000, 17.000000) rotate(-90.000000) translate(-10.000000, -17.000000) " points="-7 7 -3.98264667 16.9977592 -7 27 23.9829247 27 27 16.9977592 23.9829247 7"></polygon>
                    <path d="M7.169,5.602 L7.772,5.881 C7.565,6.547 7.313,7.186 7.016,7.78 L7.016,13.9 L6.359,13.9 L6.359,8.905 C6.107,9.283 5.828,9.652 5.531,9.994 L5.315,9.31 C6.161,8.23 6.782,6.988 7.169,5.602 Z M10.517,5.602 C10.607,5.827 10.688,6.088 10.778,6.376 L13.343,6.376 L13.343,6.952 L7.772,6.952 L7.772,6.376 L10.13,6.376 C10.049,6.142 9.959,5.917 9.86,5.71 L10.517,5.602 Z M8.366,7.474 L12.65,7.474 L12.65,9.175 L8.366,9.175 L8.366,7.474 Z M12.02,8.68 L12.02,7.969 L8.996,7.969 L8.996,8.68 L12.02,8.68 Z M13.361,9.697 L13.361,11.236 L12.875,11.236 L12.875,11.641 L10.931,11.641 L10.931,13.099 C10.931,13.585 10.661,13.837 10.139,13.837 L9.122,13.837 L8.987,13.207 C9.311,13.225 9.617,13.243 9.914,13.243 C10.148,13.243 10.265,13.135 10.265,12.937 L10.265,11.641 L8.294,11.641 L8.294,11.236 L7.691,11.236 L7.691,9.697 L13.361,9.697 Z M8.321,11.083 L12.74,11.083 L12.74,10.264 L8.321,10.264 L8.321,11.083 Z M9.176,19.961 L6.089,19.961 L6.089,19.34 L12.938,19.34 L12.938,19.961 L9.842,19.961 L9.842,25.658 L13.523,25.658 L13.523,26.279 L5.486,26.279 L5.486,25.658 L9.176,25.658 L9.176,19.961 Z" fill="#FFFFFF"></path>
                </g>
            </g>
        </g>
    </g>
</svg>