<?xml version="1.0" encoding="UTF-8"?>
<svg width="20px" height="22px" viewBox="0 0 20 22" version="1.1" xmlns="http://www.w3.org/2000/svg" xmlns:xlink="http://www.w3.org/1999/xlink">
    <!-- Generator: Sketch 51.1 (57501) - http://www.bohemiancoding.com/sketch -->
    <title>作业部位</title>
    <desc>Created with Sketch.</desc>
    <defs></defs>
    <g id="中建" stroke="none" stroke-width="1" fill="none" fill-rule="evenodd">
        <g id="新增危险作业申请01" transform="translate(-20.000000, -273.000000)" fill="#28BD9C">
            <g id="作业部位" transform="translate(20.000000, 273.000000)">
                <path d="M17,3.47058824 C17,2.10805882 15.8919412,1 14.5294118,1 C13.1668824,1 12.0588235,2.10805882 12.0588235,3.47058824 C12.0588235,4.69229412 12.9511176,5.70729412 14.1176471,5.90411765 L14.1176471,6.76470588 C14.1176471,8.35370588 12.8242941,9.64705882 11.2352941,9.64705882 L8.76470588,9.64705882 C7.60105882,9.64705882 6.56217647,10.1872941 5.88235294,11.0285294 L5.88235294,5.90411765 C7.04888235,5.70729412 7.94117647,4.69229412 7.94117647,3.47058824 C7.94117647,2.10805882 6.83311765,1 5.47058824,1 C4.10805882,1 3,2.10805882 3,3.47058824 C3,4.69229412 3.89229412,5.70729412 5.05882353,5.90411765 L5.05882353,13.3529412 L5.05882353,15.8605882 C3.89229412,16.0574118 3,17.0724118 3,18.2941176 C3,19.6566471 4.10805882,20.7647059 5.47058824,20.7647059 C6.83311765,20.7647059 7.94117647,19.6566471 7.94117647,18.2941176 C7.94117647,17.0724118 7.04888235,16.0574118 5.88235294,15.8605882 L5.88235294,13.3529412 C5.88235294,11.7639412 7.17570588,10.4705882 8.76470588,10.4705882 L11.2352941,10.4705882 C13.2788824,10.4705882 14.9411765,8.80829412 14.9411765,6.76470588 L14.9411765,5.90411765 C16.1077059,5.70729412 17,4.69229412 17,3.47058824" id="Fill-1"></path>
            </g>
        </g>
    </g>
</svg>