<?xml version="1.0" encoding="UTF-8"?>
<svg width="170px" height="50px" viewBox="0 0 170 50" version="1.1" xmlns="http://www.w3.org/2000/svg" xmlns:xlink="http://www.w3.org/1999/xlink">
    <!-- Generator: Sketch 51.1 (57501) - http://www.bohemiancoding.com/sketch -->
    <title>公司首页-塔吊背景</title>
    <desc>Created with Sketch.</desc>
    <defs>
        <rect id="path-1" x="0" y="0" width="170" height="50" rx="5"></rect>
    </defs>
    <g id="中建" stroke="none" stroke-width="1" fill="none" fill-rule="evenodd">
        <g id="20、项目首页" transform="translate(-12.000000, -923.000000)">
            <g id="公司首页-塔吊背景" transform="translate(12.000000, 923.000000)">
                <mask id="mask-2" fill="white">
                    <use xlink:href="#path-1"></use>
                </mask>
                <use id="Mask" fill="#EDF3FF" fill-rule="nonzero" xlink:href="#path-1"></use>
                <path d="M30.5914605,49.6414916 C30.395188,49.0052502 30.2131224,48.5136419 30.0452636,48.1666667 C29.8774048,47.8196914 29.5895261,47.3398934 29.1816273,46.7272727 L38.2106465,36.6974915 L26.9038395,44.7749705 C26.9363654,44.7916652 26.9648255,44.8153161 26.9959962,44.8320109 C26.0906927,44.3645578 25.0823906,44.0765732 23.99955,44.0765732 C20.7334101,44.0765732 18.0391836,46.4764443 17.4089948,49.6414916 L6.87196678,49.6414916 C6.5453528,48.2613918 6.38136818,46.8645973 6.38136818,45.4678028 C6.38136818,35.4954691 14.2851556,27.3818182 23.99955,27.3818182 C33.7139444,27.3818182 41.6177318,35.4954691 41.6177318,45.4678028 C41.6177318,46.8645973 41.4537472,48.2613918 41.1284885,49.6414916 L30.5914605,49.6414916 Z M19.3431682,49.0564124 C20.0398274,47.1128342 21.8134476,45.6909091 23.999342,45.6909091 C26.1852363,45.6909091 27.9605393,47.1128342 28.6571985,49.0564124 L19.3431682,49.0564124 Z M23.99955,26 C13.5064833,26 4.99955,34.5069333 4.99955,45 C4.99955,47.2242667 5.40235,49.3497333 6.10408333,51.3333333 L41.8950167,51.3333333 C42.5980167,49.3497333 42.99955,47.2242667 42.99955,45 C42.99955,34.5069333 34.4938833,26 23.99955,26 Z" id="Fill-1" fill="#D7E0F4" mask="url(#mask-2)"></path>
            </g>
        </g>
    </g>
</svg>