<?xml version="1.0" encoding="UTF-8"?>
<svg width="20px" height="22px" viewBox="0 0 20 22" version="1.1" xmlns="http://www.w3.org/2000/svg" xmlns:xlink="http://www.w3.org/1999/xlink">
    <!-- Generator: Sketch 51.1 (57501) - http://www.bohemiancoding.com/sketch -->
    <title>出厂编号ico</title>
    <desc>Created with Sketch.</desc>
    <defs></defs>
    <g id="中建" stroke="none" stroke-width="1" fill="none" fill-rule="evenodd">
        <g id="27、新增设备" transform="translate(-20.000000, -602.000000)" fill="#F5A623">
            <g id="Group-3" transform="translate(-1.000000, 593.000000)">
                <g id="出厂编号ico" transform="translate(21.000000, 10.000000)">
                    <polygon id="Fill-1" points="5.55555556 3.33333333 20 3.33333333 20 2.22222222 5.55555556 2.22222222"></polygon>
                    <polygon id="Fill-2" points="5.55555556 10.6666667 20 10.6666667 20 9.55555556 5.55555556 9.55555556"></polygon>
                    <polygon id="Fill-3" points="5.55555556 18 20 18 20 16.8883333 5.55555556 16.8883333"></polygon>
                    <g id="Group-10">
                        <path d="M0,0.828444444 C1.07333333,0.828444444 1.30111111,0.600111111 1.30111111,0.000111111111 L2.22222222,0.000111111111 L2.22222222,5.00011111 L1.21666667,5.00011111 L1.21666667,1.47844444 L0,1.47844444 L0,0.828444444 Z" id="Fill-4"></path>
                        <path d="M3.33333333,9.36377778 C3.33333333,10.2693333 2.25055556,10.7754444 1.90944444,10.9998889 C1.13666667,11.5126667 1,11.6948889 1,12.1654444 L3.30277778,12.1654444 L3.30277778,12.8887778 L0,12.8887778 C0,11.3298889 0.606111111,10.8876667 1.41666667,10.4098889 C1.87888889,10.1432222 2.46222222,9.88377778 2.46222222,9.286 C2.46222222,8.80877778 2.12888889,8.61211111 1.69722222,8.61211111 C1.24222222,8.61211111 0.871111111,8.85822222 0.871111111,9.42711111 L0,9.42711111 C0,8.42988889 0.818333333,7.88877778 1.70444444,7.88877778 C2.62166667,7.88877778 3.33333333,8.38044444 3.33333333,9.36377778" id="Fill-6"></path>
                        <path d="M1.33733333,17.2526667 L1.67011111,17.2526667 C2.24566667,17.2526667 2.41844444,16.9626667 2.41844444,16.5482222 C2.41844444,16.141 2.13455556,15.9337778 1.73233333,15.9337778 C1.15733333,15.9337778 0.963444444,16.2582222 0.963444444,16.7348889 L0.166777778,16.7348889 C0.166777778,15.8371111 0.796777778,15.2221111 1.67677778,15.2221111 C2.50844444,15.2221111 3.21566667,15.7471111 3.21566667,16.5482222 C3.21566667,17.101 2.94511111,17.446 2.55677778,17.6115556 C2.99344444,17.7843333 3.33344444,18.1365556 3.33344444,18.7515556 C3.33344444,19.6282222 2.58455556,20.2221111 1.69066667,20.2221111 C0.811222222,20.2221111 0.000111111111,19.6076667 0.000111111111,18.5237778 L0.796777778,18.5237778 C0.796777778,19.1515556 1.21288889,19.5104444 1.72511111,19.5104444 C2.23122222,19.5104444 2.53622222,19.1515556 2.53622222,18.7576667 C2.53622222,18.3021111 2.32122222,17.9571111 1.66344444,17.9571111 L1.33733333,17.9571111 L1.33733333,17.2526667 Z" id="Fill-8"></path>
                    </g>
                </g>
            </g>
        </g>
    </g>
</svg>