<?xml version="1.0" encoding="UTF-8"?>
<svg width="20px" height="22px" viewBox="0 0 20 22" version="1.1" xmlns="http://www.w3.org/2000/svg" xmlns:xlink="http://www.w3.org/1999/xlink">
    <!-- Generator: Sketch 51.1 (57501) - http://www.bohemiancoding.com/sketch -->
    <title>出租单位ico</title>
    <desc>Created with Sketch.</desc>
    <defs>
        <polygon id="path-1" points="2.68292683e-06 0.00753902439 19.4121486 0.00753902439 19.4121486 21.9731654 2.68292683e-06 21.9731654"></polygon>
    </defs>
    <g id="中建" stroke="none" stroke-width="1" fill="none" fill-rule="evenodd">
        <g id="27、新增设备" transform="translate(-20.000000, -654.000000)">
            <g id="Group-3" transform="translate(-1.000000, 646.000000)">
                <g id="出租单位ico" transform="translate(21.000000, 8.000000)">
                    <path d="M9.03864634,14.310061 C9.00425122,14.2715073 8.91842439,14.1770683 8.84547561,14.0955341 L7.91409756,13.1084049 C7.84117561,13.0311634 7.75964146,12.9538146 7.73815122,12.9324317 C7.72964634,12.9238463 7.71247561,12.915261 7.69098537,12.915261 C7.62232927,12.915261 7.51933171,13.0010878 7.4892561,13.0268707 L7.45926098,13.0525463 C7.43779756,13.0740366 7.4206,13.0783293 7.41201463,13.0783293 C7.41201463,13.0783293 7.40769512,13.0783293 7.40769512,13.0740366 C7.40340244,13.0697171 7.39910976,13.056839 7.39910976,13.022578 L7.39910976,12.4474122 C7.39910976,12.365878 7.46358049,12.3015415 7.54511463,12.3015415 L8.6867,12.3015415 C8.8240122,12.3015415 8.93562195,12.1899049 8.93562195,12.0526195 L8.93562195,11.5461098 C8.93562195,11.4088244 8.8240122,11.2972146 8.6867,11.2972146 L7.54511463,11.2972146 C7.46358049,11.2972146 7.39910976,11.232878 7.39910976,11.1513439 L7.39910976,10.1556024 C7.39910976,10.078361 7.41201463,10.0225024 7.4206,10.001039 C7.46358049,9.99671951 7.56217805,9.98824146 7.65661707,9.9796561 L8.51504634,9.89812195 C8.62236341,9.88950976 8.73815854,9.87663171 8.77255366,9.87233902 C8.79401707,9.87233902 8.81110732,9.85943415 8.8240122,9.84226341 C8.86696585,9.78219268 8.84118293,9.6534122 8.83259756,9.61483171 L8.69960488,9.04827805 C8.67811463,8.9667439 8.63513415,8.82513902 8.55791951,8.82513902 L8.54930732,8.82513902 C8.52363171,8.82945854 8.41631463,8.84222927 8.30899756,8.85513415 L5.22322927,9.13839756 C5.1159122,9.14700976 4.99998293,9.15559512 4.96142927,9.15559512 C4.93135366,9.15559512 4.90127805,9.17276585 4.88408049,9.19844146 C4.86699024,9.22422439 4.85840488,9.25432683 4.86699024,9.28429512 C4.87549512,9.31866341 4.90127805,9.43027317 4.92706098,9.53759024 L4.99139756,9.85084878 C5.00859512,9.95387317 5.03005854,10.0654829 5.03437805,10.0911585 C5.04296341,10.1427244 5.08580976,10.181278 5.13737561,10.181278 L5.14588049,10.181278 C5.17166341,10.181278 5.28327317,10.1728 5.39059024,10.1642146 L6.09442927,10.1126488 C6.19316098,10.1040366 6.30047805,10.0954512 6.34335122,10.0954512 C6.35193659,10.1126488 6.36913415,10.1642146 6.36913415,10.2371366 L6.36913415,11.159822 C6.36913415,11.2414634 6.30466341,11.3058 6.22312927,11.3058 L5.03437805,11.3058 C4.89695854,11.3058 4.78534878,11.4174366 4.78534878,11.554722 L4.78534878,12.0611244 C4.78534878,12.1985171 4.89695854,12.3101268 5.03437805,12.3101268 L6.06864634,12.3101268 C6.13730244,12.3101268 6.17596341,12.3272171 6.18886829,12.3358024 C5.9527439,13.3015488 4.75967317,15.3272659 4.74679512,15.3444634 C4.72530488,15.3744317 4.7210122,15.4130927 4.73818293,15.447461 C4.74679512,15.4645512 4.78534878,15.5546976 4.82403659,15.6534024 L5.0128878,16.1212512 C5.05154878,16.2199561 5.10300732,16.3444707 5.12020488,16.3959293 C5.13737561,16.4430951 5.17166341,16.468878 5.21461707,16.468878 C5.24890488,16.468878 5.27898049,16.4516805 5.3004439,16.4174195 C5.33043902,16.374439 5.40776098,16.2628293 5.46783171,16.1684171 L6.14159512,15.0096073 C6.19316098,14.9109829 6.27040244,14.7521 6.31756829,14.6533951 L6.36913415,14.5461854 L6.36913415,17.9709951 C6.36913415,18.1083878 6.4807439,18.2199976 6.61802927,18.2199976 L7.15450732,18.2199976 C7.29179268,18.2199976 7.40340244,18.1083878 7.40340244,17.9709951 L7.40340244,14.0396756 C7.40340244,14.014 7.40769512,13.9968024 7.41201463,13.9882171 C7.41630732,13.9925098 7.4206,13.9925098 7.42489268,14.0010951 C7.4806439,14.0654585 7.58796098,14.1899463 7.65661707,14.2715073 L8.12014634,14.833661 C8.18880244,14.9194878 8.25753902,15.0053146 8.27892195,15.0310976 C8.28750732,15.0396829 8.30470488,15.0568805 8.33907317,15.0568805 C8.41202195,15.0568805 8.50646098,14.9753463 8.53653659,14.9538561 L8.95708537,14.5933512 C9.02574146,14.5332805 9.07301463,14.4603317 9.0772,14.4001805 C9.06440244,14.348722 9.05152439,14.3272585 9.03864634,14.310061" id="Fill-1" fill="#9B9B9B"></path>
                    <path d="M13.124438,11.4860712 C13.124438,11.5676054 13.0601015,11.631942 12.9785673,11.631942 L10.6480698,11.631942 C10.5665356,11.631942 10.502199,11.5676054 10.502199,11.4860712 L10.502199,10.1685127 C10.502199,10.0868712 10.5665356,10.0225078 10.6480698,10.0225078 L12.9785673,10.0225078 C13.0601015,10.0225078 13.124438,10.0868712 13.124438,10.1685127 L13.124438,11.4860712 Z M13.124438,14.0912468 C13.124438,14.172781 13.0601015,14.2371176 12.9785673,14.2371176 L10.6480698,14.2371176 C10.5665356,14.2371176 10.502199,14.172781 10.502199,14.0912468 L10.502199,12.7735541 C10.502199,12.69202 10.5665356,12.6276834 10.6480698,12.6276834 L12.9785673,12.6276834 C13.0601015,12.6276834 13.124438,12.69202 13.124438,12.7735541 L13.124438,14.0912468 Z M13.124438,16.7263371 C13.124438,16.8078712 13.0601015,16.8723688 12.9785673,16.8723688 L10.6480698,16.8723688 C10.5665356,16.8723688 10.502199,16.8078712 10.502199,16.7263371 L10.502199,15.3787298 C10.502199,15.2971956 10.5665356,15.2328054 10.6480698,15.2328054 L12.9785673,15.2328054 C13.0601015,15.2328054 13.124438,15.2971956 13.124438,15.3787298 L13.124438,16.7263371 Z M14.785438,16.8723688 L14.343399,16.8723688 C14.2618649,16.8723688 14.1973941,16.8078712 14.1973941,16.7263371 L14.1973941,9.26721024 C14.1973941,9.12981756 14.0857844,9.0182078 13.948499,9.0182078 L9.68245756,9.0182078 C9.54503805,9.0182078 9.43340146,9.12981756 9.43340146,9.26721024 L9.43340146,16.7220712 C9.43340146,16.8036054 9.36906488,16.8680761 9.28753073,16.8680761 L8.51503561,16.8680761 C8.37764293,16.8680761 8.26614049,16.9795785 8.26614049,17.1169712 L8.26614049,17.6233737 C8.26614049,17.7607663 8.37764293,17.8722688 8.51503561,17.8722688 L14.785438,17.8722688 C14.9227234,17.8722688 15.03436,17.7607663 15.03436,17.6233737 L15.03436,17.1169712 C15.0300405,16.9838712 14.9184307,16.8723688 14.785438,16.8723688 Z" id="Fill-3" fill="#9B9B9B"></path>
                    <g id="Group-7" transform="translate(0.000000, 0.019290)">
                        <mask id="mask-2" fill="white">
                            <use xlink:href="#path-1"></use>
                        </mask>
                        <g id="Clip-6"></g>
                        <path d="M5.81116854,4.38091902 L6.06864902,3.24359951 L7.20167585,3.24359951 C7.90991488,3.24359951 8.54072463,2.77145805 8.70390024,2.12766293 L9.03432951,0.947389756 L10.3776978,0.947389756 L10.6781588,2.05903366 C10.8455198,2.71570683 11.4935002,3.20923122 12.1802759,3.20923122 L13.3133027,3.20923122 L13.6008588,4.37662634 L5.81116854,4.37662634 L5.81116854,4.38091902 Z M5.02147585,4.99463854 C5.18883683,5.20066049 5.44634415,5.32088244 5.73392707,5.32088244 L13.6823929,5.32088244 C13.9699759,5.32088244 14.2274832,5.20066049 14.3948441,4.99463854 C14.5236515,4.83586293 14.5836954,4.63410683 14.57511,4.41958 L14.5664978,4.20923854 L18.5236271,4.20923854 L18.5236271,21.0847678 L0.897012439,21.0847678 L0.897012439,4.21353122 L4.85411488,4.21353122 L4.84550268,4.42387268 C4.83262463,4.63410683 4.89696122,4.83586293 5.02147585,4.99463854 Z M19.1158563,3.62559463 C18.9227124,3.43674341 18.6694978,3.33371902 18.3991124,3.33371902 L14.31331,3.33371902 L14.2532661,3.09762146 C14.1287515,2.59980439 13.6352539,2.22639463 13.1158393,2.22639463 L11.961349,2.22639463 L11.9398588,2.22210195 C11.854032,2.20490439 11.7639124,2.13198244 11.725332,2.05903366 L11.7167466,2.03754341 L11.4205783,0.878760488 C11.2918783,0.380943415 10.8025393,0.00753365854 10.2832588,0.00753365854 L9.1459661,0.00753365854 C8.6223661,0.00753365854 8.1330539,0.380943415 8.00853927,0.878760488 L7.71247829,2.03754341 L7.70389293,2.05903366 C7.66520512,2.13198244 7.57508561,2.20490439 7.48925878,2.22210195 L7.46776854,2.22639463 L6.3046661,2.22639463 C5.78109293,2.22639463 5.29186122,2.59980439 5.16737341,3.09762146 L5.10730268,3.33803854 L1.01720756,3.33803854 C0.459239268,3.33803854 2.68292683e-06,3.78437024 2.68292683e-06,4.33375317 L2.68292683e-06,20.9774507 C2.68292683e-06,21.5268068 0.454946585,21.9731654 1.01720756,21.9731654 L18.3991124,21.9731654 C18.9570807,21.9731654 19.4120246,21.5268068 19.4120246,20.9774507 L19.4120246,4.32946049 C19.4163173,4.0633678 19.3090002,3.81004585 19.1158563,3.62559463 Z" id="Fill-5" fill="#9B9B9B" mask="url(#mask-2)"></path>
                    </g>
                </g>
            </g>
        </g>
    </g>
</svg>