<?xml version="1.0" encoding="UTF-8"?>
<svg width="55px" height="55px" viewBox="0 0 55 55" version="1.1" xmlns="http://www.w3.org/2000/svg" xmlns:xlink="http://www.w3.org/1999/xlink">
    <!-- Generator: Sketch 51.1 (57501) - http://www.bohemiancoding.com/sketch -->
    <title>分供方评价</title>
    <desc>Created with Sketch.</desc>
    <defs></defs>
    <g id="中建二" stroke="none" stroke-width="1" fill="none" fill-rule="evenodd">
        <g id="29、新增图标" transform="translate(-236.000000, -258.000000)">
            <g id="分供方评价" transform="translate(236.000000, 258.000000)">
                <rect id="Rectangle-5" fill="#E8C680" fill-rule="nonzero" x="0" y="0" width="55" height="55" rx="27.5"></rect>
                <g id="Group-3" transform="translate(17.000000, 16.000000)" fill="#FFFFFF">
                    <path d="M20.188182,0 C19.298677,0 18.5767685,0.721939914 18.5767685,1.61141345 C18.5767685,1.70167954 18.6153551,1.77901001 18.6282592,1.85634049 L15.4054323,4.97615451 C15.1605368,4.82149356 14.8768973,4.70541917 14.5545454,4.70541917 C13.9357757,4.70541917 13.4072406,5.06638913 13.1365053,5.58202003 L9.48815622,4.86008011 C9.28187868,4.20269242 8.70178999,3.69987124 7.9669774,3.69987124 C7.18061116,3.69987124 6.56184149,4.28002289 6.40705465,5.01486695 L2.7459588,7.20633763 C2.47522346,7.00015451 2.15284006,6.85827182 1.79190157,6.85827182 C0.902396567,6.85827182 0.180456652,7.58021173 0.180456652,8.46971674 C0.180456652,9.35931617 0.902396567,10.0812561 1.79190157,10.0812561 C2.57836223,10.0812561 3.1971319,9.50107296 3.35182432,8.76626037 L7.00014192,6.57466381 C7.27090873,6.78094134 7.59310329,6.92282403 7.95410472,6.92282403 C8.3923422,6.92282403 8.77915193,6.74235479 9.06279142,6.47161946 L13.2782621,7.30947639 C13.5748057,7.6575422 14.000202,7.87675536 14.490119,7.87675536 C15.2893894,7.87675536 15.9210632,7.28379399 16.0500418,6.52314163 L19.6982649,3.13259227 C19.8530518,3.18424034 20.0077127,3.23576252 20.1752778,3.23576252 C21.0647828,3.23576252 21.7866913,2.5138226 21.7866913,1.62434907 C21.7995954,0.721939914 21.077687,0 20.188182,0 Z M18.3833637,22.7278255 L21.9800647,22.7278255 L21.9800647,7.18065522 L18.3833637,7.18065522 L18.3833637,22.7278255 Z M12.6465883,22.7278255 L16.2434152,22.7278255 L16.2434152,11.9892132 L12.6465883,11.9892132 L12.6465883,22.7278255 Z M6.17509471,22.7149213 L9.77182718,22.7149213 L9.77182718,10.0167039 L6.17509471,10.0167039 L6.17509471,22.7149213 Z M-1.25894134e-05,22.7149213 L3.59668841,22.7149213 L3.59668841,13.4587439 L-1.25894134e-05,13.4587439 L-1.25894134e-05,22.7149213 Z" id="Fill-1"></path>
                </g>
            </g>
        </g>
    </g>
</svg>