<?xml version="1.0" encoding="UTF-8"?>
<svg width="55px" height="55px" viewBox="0 0 55 55" version="1.1" xmlns="http://www.w3.org/2000/svg" xmlns:xlink="http://www.w3.org/1999/xlink">
    <!-- Generator: Sketch 51.1 (57501) - http://www.bohemiancoding.com/sketch -->
    <title>分供方考核</title>
    <desc>Created with Sketch.</desc>
    <defs></defs>
    <g id="中建二" stroke="none" stroke-width="1" fill="none" fill-rule="evenodd">
        <g id="29、新增图标" transform="translate(-160.000000, -258.000000)">
            <g id="分供方考核" transform="translate(160.000000, 258.000000)">
                <rect id="Rectangle-5" fill="#F45555" fill-rule="nonzero" x="0" y="0" width="55" height="55" rx="27.5"></rect>
                <g id="Group-5" transform="translate(17.000000, 16.000000)" fill="#FFFFFF">
                    <path d="M14.5316654,23.2017678 L14.2729401,24.7041578 C14.261673,24.7543854 14.2779856,24.8068513 14.3156184,24.8417906 C14.3532511,24.8769196 14.4067413,24.8893627 14.4559446,24.8745675 L15.8447534,24.5842413 C15.8744196,24.578475 15.9010888,24.5629211 15.9204742,24.5399317 L23.5647838,16.8703187 C23.7469158,16.6723293 23.7469158,16.3676631 23.5647838,16.1696737 L22.9335243,15.5066616 C22.7353832,15.3246813 22.4310205,15.3246813 22.2328794,15.5066616 L14.5758232,23.1258953 C14.5516578,23.1471396 14.5359522,23.1761608 14.5316654,23.2080273 L14.5316654,23.2017678 Z M13.4329932,26.3580653 C13.2410736,26.3554097 13.0593968,26.2703566 12.9343589,26.1244917 C12.8150493,25.973088 12.76467,25.7785129 12.7954742,25.5880728 L13.2815516,22.728475 C13.3058308,22.5954325 13.3722572,22.4737709 13.4709294,22.3812822 L21.2859522,14.5664112 C21.9942982,13.8964568 23.1026062,13.8964568 23.8109522,14.5664112 L24.4736229,15.1977086 C25.163456,15.8980501 25.163456,17.0223293 24.4736229,17.7226707 L16.6651252,25.5880728 C16.57772,25.6776024 16.4656563,25.7390971 16.3432739,25.7648558 L13.5909598,26.3454704 L13.4329932,26.3580653 Z" id="Fill-1"></path>
                    <path d="M16.1159484,8.46221168 L6.01602428,8.46221168 C5.67884674,8.49066388 5.35437785,8.32693096 5.17710167,8.0386912 C4.99974962,7.75060319 4.99974962,7.38709788 5.17710167,7.0990478 C5.35452959,6.81095979 5.67903642,6.64722686 6.01617602,6.67567906 L16.1161002,6.67567906 C16.5796434,6.71581563 16.9352959,7.10378983 16.9352959,7.56907815 C16.9352959,8.03425266 16.5794917,8.42207511 16.1159484,8.46221168 Z M16.1159484,13.1080766 L6.01602428,13.1080766 C5.67846737,13.1372876 5.35312595,12.9736684 5.17547041,12.6853149 C4.99762519,12.3967716 4.99762519,12.0328111 5.17547041,11.7443058 C5.35327769,11.4559143 5.67861912,11.2923331 6.01617602,11.3216578 L16.1161002,11.3216578 C16.5796434,11.3618323 16.9352959,11.7497686 16.9352959,12.2149431 C16.9352959,12.6801176 16.5794917,13.0680539 16.1159484,13.1080766 Z M16.8355615,0.00348634294 L1.05437785,0.00348634294 C0.777974203,7.20789074e-05 0.51185129,0.106597117 0.314165402,0.299540971 C0.116441578,0.492484825 0.00339150228,0.756103945 0.000166919575,1.03235584 L1.51745068e-05,1.04510243 L1.51745068e-05,17.6407398 C0.00699544765,20.5662709 2.37694992,22.9362253 5.30259484,22.9432056 L10.5356373,22.9432056 C10.7717906,22.9435091 10.9986874,22.8504514 11.1668589,22.6844803 L21.7972079,12.1487064 C21.9684901,11.9831904 22.0663278,11.7558763 22.0686798,11.5175607 L22.0686798,5.30580046 C22.062003,2.40709029 19.7339681,0.0482132018 16.8355615,0.00348634294 Z M22.9901138,18.9849355 C22.8254704,18.9859977 22.6669347,18.9225683 22.5483839,18.8083042 L20.2255083,16.5988202 C20.0371548,16.4479476 19.9513809,16.2029932 20.0044158,15.9675228 C20.041176,15.719154 20.221525,15.5161571 20.4639378,15.4503756 C20.7062367,15.3847079 20.9645448,15.4687367 21.1217527,15.6644879 L23.4446282,17.8739719 C23.7063126,18.0314833 23.8177693,18.3537898 23.7091199,18.6392223 C23.6005083,18.9247686 23.303088,19.0914985 23.0028604,19.0351631 L22.9901138,18.9849355 Z" id="Fill-3"></path>
                </g>
            </g>
        </g>
    </g>
</svg>