<?xml version="1.0" encoding="UTF-8"?>
<svg width="55px" height="55px" viewBox="0 0 55 55" version="1.1" xmlns="http://www.w3.org/2000/svg" xmlns:xlink="http://www.w3.org/1999/xlink">
    <!-- Generator: Sketch 51.1 (57501) - http://www.bohemiancoding.com/sketch -->
    <title>分包考核</title>
    <desc>Created with Sketch.</desc>
    <defs>
        <polygon id="path-1" points="0 3.05623472e-06 24.9786339 3.05623472e-06 24.9786339 24.9786369 0 24.9786369"></polygon>
    </defs>
    <g id="中建二" stroke="none" stroke-width="1" fill="none" fill-rule="evenodd">
        <g id="29、新增图标" transform="translate(-10.000000, -258.000000)">
            <g id="分包考核" transform="translate(10.000000, 258.000000)">
                <rect id="Rectangle-5" fill="#AC62E9" fill-rule="nonzero" x="0" y="0" width="55" height="55" rx="27.5"></rect>
                <g id="Group-3" transform="translate(17.000000, 16.000000)">
                    <mask id="mask-2" fill="white">
                        <use xlink:href="#path-1"></use>
                    </mask>
                    <g id="Clip-2"></g>
                    <path d="M11.403695,18.3588967 L15.0283282,21.4569101 L24.9786339,11.5285789 L15.1639334,24.9785177 L10.1103881,19.6260422 L11.403695,18.3588967 Z M15.6728576,15.3714273 C15.6728576,15.6367084 15.4535727,15.8517145 15.1830348,15.8517145 L6.36711186,15.8517145 C6.09657396,15.8517145 5.87741137,15.6367084 5.87741137,15.3714273 L5.87741137,14.8910177 C5.87741137,14.6257366 6.09657396,14.4106999 6.36711186,14.4106999 L15.1830348,14.4106999 C15.4535727,14.4106999 15.6728576,14.6257366 15.6728576,14.8910177 L15.6728576,15.3714273 Z M15.1830348,10.567882 L6.36711186,10.567882 C6.09657396,10.567882 5.87741137,10.3527537 5.87741137,10.0874725 L5.87741137,9.60718521 C5.87741137,9.34181235 6.09657396,9.12680623 6.36711186,9.12680623 L15.1830348,9.12680623 C15.4535727,9.12680623 15.6728576,9.34181235 15.6728576,9.60718521 L15.6728576,10.0874725 C15.6728576,10.3527537 15.4535727,10.567882 15.1830348,10.567882 Z M19.5910727,3.84285147 C19.5910727,3.31231968 19.1524419,2.88215465 18.6115189,2.88215465 L16.1625886,2.88215465 L16.1625886,3.84285147 C16.1625886,4.37338325 15.7240801,4.80354829 15.1830348,4.80354829 L6.85681235,4.80354829 C6.31588936,4.80354829 5.87741137,4.3735055 5.87741137,3.84285147 L5.87741137,2.88215465 L2.93862775,2.88215465 C2.39770477,2.88215465 1.95910452,3.31231968 1.95910452,3.84285147 L1.95910452,22.0964578 C1.95910452,22.6269896 2.39770477,23.0571241 2.93862775,23.0571241 L10.7750275,23.0571241 L12.7342268,24.97864 L1.95910452,24.97864 C0.877105746,24.9785177 -3.05623472e-06,24.1183405 -3.05623472e-06,23.0571241 L-3.05623472e-06,2.88215465 C-3.05623472e-06,1.82096883 0.877105746,0.960669315 1.95910452,0.960669315 L5.87741137,0.960669315 C5.87741137,0.430137531 6.31588936,3.05623472e-06 6.85681235,3.05623472e-06 L15.1830348,3.05623472e-06 C15.7240801,3.05623472e-06 16.1625886,0.430137531 16.1625886,0.960669315 L19.5910727,0.960669315 C20.673041,0.960669315 21.5501498,1.82096883 21.5501498,2.88215465 L21.5501498,11.6983221 L19.5910727,13.6936767 L19.5910727,3.84285147 Z" id="Fill-1" fill="#FFFFFF" mask="url(#mask-2)"></path>
                </g>
            </g>
        </g>
    </g>
</svg>