<?xml version="1.0" encoding="UTF-8"?>
<svg width="55px" height="55px" viewBox="0 0 55 55" version="1.1" xmlns="http://www.w3.org/2000/svg" xmlns:xlink="http://www.w3.org/1999/xlink">
    <!-- Generator: Sketch 51.1 (57501) - http://www.bohemiancoding.com/sketch -->
    <title>分包评价</title>
    <desc>Created with Sketch.</desc>
    <defs></defs>
    <g id="中建二" stroke="none" stroke-width="1" fill="none" fill-rule="evenodd">
        <g id="29、新增图标" transform="translate(-85.000000, -258.000000)">
            <g id="分包评价" transform="translate(85.000000, 258.000000)">
                <rect id="Rectangle-5" fill="#3668DB" fill-rule="nonzero" x="0" y="0" width="55" height="55" rx="27.5"></rect>
                <path d="M33.1048232,28.6969366 C32.2748292,28.6969366 31.6208745,27.9982297 31.6208745,27.2128832 C31.6208745,26.3827495 32.3195814,25.7287948 33.1048232,25.7287948 C33.9349568,25.7287948 34.5888766,26.4275017 34.5888766,27.2128832 C34.5888766,27.9982297 33.9349568,28.6969366 33.1048232,28.6969366 M27.6074323,28.6969366 C26.7774383,28.6969366 26.1233439,27.9982297 26.1233439,27.2128832 C26.1233439,26.3827495 26.8220508,25.7287948 27.6074323,25.7287948 C28.437531,25.7287948 29.0914857,26.4275017 29.0914857,27.2128832 C29.0914857,27.9982297 28.3927788,28.6969366 27.6074323,28.6969366 M21.8920797,28.6969366 C21.061981,28.6969366 20.4080263,27.9982297 20.4080263,27.2128832 C20.4080263,26.3827495 21.1067332,25.7287948 21.8920797,25.7287948 C22.7220737,25.7287948 23.3761681,26.4275017 23.3761681,27.2128832 C23.4180556,27.9982297 22.7220737,28.6969366 21.8920797,28.6969366 M27.5207577,16 C20.5840655,16 15,20.8853237 15,26.9081072 C15,30.6168784 17.1380082,33.8896214 20.3661388,35.8963426 L20.3661388,39.2557253 C20.3661388,39.6917534 20.6707052,39.9963197 21.0648457,39.9963197 C21.1960978,39.9963197 21.3275246,39.9517073 21.4141992,39.90968 L24.8154694,37.6403849 C25.6874905,37.8135594 26.5593719,37.8583115 27.4761452,37.8583115 C34.4157021,37.8583115 39.9997676,32.9729529 39.9997676,26.9501694 C40.0416551,20.8853237 34.4157021,16 27.5207577,16" id="Fill-1" fill="#FFFFFF"></path>
            </g>
        </g>
    </g>
</svg>