<?xml version="1.0" encoding="UTF-8"?>
<svg width="15px" height="15px" viewBox="0 0 15 15" version="1.1" xmlns="http://www.w3.org/2000/svg" xmlns:xlink="http://www.w3.org/1999/xlink">
    <!-- Generator: Sketch 51.1 (57501) - http://www.bohemiancoding.com/sketch -->
    <title>分部工程ico</title>
    <desc>Created with Sketch.</desc>
    <defs></defs>
    <g id="中建" stroke="none" stroke-width="1" fill="none" fill-rule="evenodd">
        <g id="26、危险源信息" transform="translate(-25.000000, -310.000000)" fill="#333333" fill-rule="nonzero">
            <g id="Group-9" transform="translate(25.000000, 307.000000)">
                <g id="分部工程ico" transform="translate(0.000000, 3.000000)">
                    <path d="M0.377918886,6.74707919 L3.82834904,6.74707919 C4.0372798,6.74707919 4.20626792,6.92557334 4.20626792,7.14625703 L4.20626792,14.6008222 C4.20626792,14.8215058 4.0372798,15 3.82834904,15 L0.377918886,15 C0.16898812,15 0,14.8215058 0,14.6008222 L0,7.14625703 C0,6.92557334 0.16898812,6.74707919 0.377918886,6.74707919 Z M5.39840229,0.399177845 C5.39840229,0.178494158 5.56739041,0.00324534833 5.77324867,0 L9.22675133,0 C9.4356821,0 9.60467022,0.178494158 9.60467022,0.399177845 L9.60467022,14.6008222 C9.60467022,14.8215058 9.4356821,15 9.22675133,15 L5.77632118,15 C5.56739041,15 5.39840229,14.8215058 5.39840229,14.6008222 L5.39840229,0.399177845 Z M14.6220811,14.9967547 L14.6220811,15 L11.171651,15 C10.9627202,15 10.7937321,14.8215058 10.7937321,14.6008222 L10.7937321,5.03353527 C10.7937321,4.81285158 10.9627202,4.63435742 11.171651,4.63435742 L14.6220811,4.63435742 C14.8310119,4.63435742 15,4.81285158 15,5.03353527 L15,14.5975768 C15,14.8182605 14.8310119,14.9967547 14.6220811,14.9967547 Z" id="bar-chart"></path>
                </g>
            </g>
        </g>
    </g>
</svg>