<?xml version="1.0" encoding="UTF-8"?>
<svg width="15px" height="11px" viewBox="0 0 15 11" version="1.1" xmlns="http://www.w3.org/2000/svg" xmlns:xlink="http://www.w3.org/1999/xlink">
    <!-- Generator: Sketch 51.1 (57501) - http://www.bohemiancoding.com/sketch -->
    <title>切换按钮ico</title>
    <desc>Created with Sketch.</desc>
    <defs></defs>
    <g id="中建" stroke="none" stroke-width="1" fill="none" fill-rule="evenodd">
        <g id="15、安全整改" transform="translate(-334.000000, -79.000000)">
            <g id="Group-3" transform="translate(294.000000, 70.000000)">
                <g id="切换按钮ico" transform="translate(40.000000, 9.000000)">
                    <path d="M0,6.94373276 C0,6.58409085 0.291266578,6.29117308 0.652539788,6.29117308 L14.3283422,6.29117308 C14.6880637,6.29117308 14.980882,6.58245955 14.980882,6.94373276 C14.980882,7.30345424 14.6896154,7.59627255 14.3283422,7.59627255 L0.652539788,7.59627255 C0.292818302,7.59627255 0,7.30345424 0,6.94373276 M0,3.76234019 C0,3.4026187 0.291266578,3.1098004 0.652539788,3.1098004 L14.3283422,3.1098004 C14.6880637,3.1098004 14.980882,3.40106698 14.980882,3.76234019 C14.980882,4.1219821 14.6896154,4.41487997 14.3283422,4.41487997 L0.652539788,4.41487997 C0.292818302,4.41324867 0,4.1219821 0,3.76234019" id="Fill-1" fill="#959595"></path>
                    <path d="M0.19102321,4.22222149 C-0.0636385942,3.96763926 -0.0636385942,3.55539788 0.19102321,3.30081565 L3.30083753,0.191001326 C3.55541976,-0.0636604775 3.96766114,-0.0636604775 4.22224337,0.191001326 C4.47690517,0.44556366 4.47690517,0.857824934 4.22224337,1.11248674 L1.11250862,4.22222149 C0.857846817,4.47688329 0.445585544,4.47688329 0.19102321,4.22222149 M10.7570113,10.5150796 C10.502429,10.2604973 10.502429,9.84823607 10.7570113,9.59357427 L13.8668256,6.48383952 C14.1214874,6.22917772 14.5336691,6.22917772 14.788311,6.48383952 C15.0429728,6.73842175 15.0429728,7.15066313 14.788311,7.40524536 L11.6784967,10.5150796 C11.4238349,10.7697215 11.0116532,10.7697215 10.7570113,10.5150796" id="Fill-3" fill="#999999"></path>
                </g>
            </g>
        </g>
    </g>
</svg>