<?xml version="1.0" encoding="UTF-8"?>
<svg width="20px" height="22px" viewBox="0 0 20 22" version="1.1" xmlns="http://www.w3.org/2000/svg" xmlns:xlink="http://www.w3.org/1999/xlink">
    <!-- Generator: Sketch 51.1 (57501) - http://www.bohemiancoding.com/sketch -->
    <title>动火部位</title>
    <desc>Created with Sketch.</desc>
    <defs></defs>
    <g id="中建" stroke="none" stroke-width="1" fill="none" fill-rule="evenodd">
        <g id="新增危险作业申请02" transform="translate(-20.000000, -551.000000)" fill="#BD10E0">
            <g id="动火部位" transform="translate(20.000000, 551.000000)">
                <path d="M18,2.47058824 C18,1.10805882 16.8919412,0 15.5294118,0 C14.1668824,0 13.0588235,1.10805882 13.0588235,2.47058824 C13.0588235,3.69229412 13.9511176,4.70729412 15.1176471,4.90411765 L15.1176471,5.76470588 C15.1176471,7.35370588 13.8242941,8.64705882 12.2352941,8.64705882 L9.76470588,8.64705882 C8.60105882,8.64705882 7.56217647,9.18729412 6.88235294,10.0285294 L6.88235294,4.90411765 C8.04888235,4.70729412 8.94117647,3.69229412 8.94117647,2.47058824 C8.94117647,1.10805882 7.83311765,0 6.47058824,0 C5.10805882,0 4,1.10805882 4,2.47058824 C4,3.69229412 4.89229412,4.70729412 6.05882353,4.90411765 L6.05882353,12.3529412 L6.05882353,14.8605882 C4.89229412,15.0574118 4,16.0724118 4,17.2941176 C4,18.6566471 5.10805882,19.7647059 6.47058824,19.7647059 C7.83311765,19.7647059 8.94117647,18.6566471 8.94117647,17.2941176 C8.94117647,16.0724118 8.04888235,15.0574118 6.88235294,14.8605882 L6.88235294,12.3529412 C6.88235294,10.7639412 8.17570588,9.47058824 9.76470588,9.47058824 L12.2352941,9.47058824 C14.2788824,9.47058824 15.9411765,7.80829412 15.9411765,5.76470588 L15.9411765,4.90411765 C17.1077059,4.70729412 18,3.69229412 18,2.47058824" id="Fill-1"></path>
            </g>
        </g>
    </g>
</svg>