<?xml version="1.0" encoding="UTF-8"?>
<svg width="20px" height="22px" viewBox="0 0 20 22" version="1.1" xmlns="http://www.w3.org/2000/svg" xmlns:xlink="http://www.w3.org/1999/xlink">
    <!-- Generator: Sketch 51.1 (57501) - http://www.bohemiancoding.com/sketch -->
    <title>单位ico</title>
    <desc>Created with Sketch.</desc>
    <defs></defs>
    <g id="中建" stroke="none" stroke-width="1" fill="none" fill-rule="evenodd">
        <g id="新增危险作业申请02" transform="translate(-20.000000, -365.000000)">
            <g id="单位ico" transform="translate(20.000000, 365.000000)">
                <path d="M0.9,1.8 L19.1,1.8 L19.1,0.9 L0.9,0.9 L0.9,1.8 Z M20,0 L0,0 L0,2.7 L1,2.7 L1,18.45 C1,20.187 2.57,21.6 4.5,21.6 L15.5,21.6 C17.43,21.6 19,20.187 19,18.45 L19,2.7 L20,2.7 L20,0 Z" id="Fill-7" fill="#F5A623"></path>
                <path d="M6.51,9.39 L10.82,9.39 C11.14,8.89 11.43,8.34 11.68,7.76 L12.38,8.01 C12.14,8.52 11.87,8.98 11.57,9.39 L13.49,9.39 L13.49,13.5 L10.36,13.5 L10.36,14.45 L14.44,14.45 L14.44,15.13 L10.36,15.13 L10.36,17.03 L9.64,17.03 L9.64,15.13 L5.56,15.13 L5.56,14.45 L9.64,14.45 L9.64,13.5 L6.51,13.5 L6.51,9.39 Z M12.79,12.86 L12.79,11.74 L10.36,11.74 L10.36,12.86 L12.79,12.86 Z M9.64,12.86 L9.64,11.74 L7.21,11.74 L7.21,12.86 L9.64,12.86 Z M7.21,11.12 L9.64,11.12 L9.64,10.02 L7.21,10.02 L7.21,11.12 Z M10.36,10.02 L10.36,11.12 L12.79,11.12 L12.79,10.02 L10.36,10.02 Z M8.28,7.81 C8.61,8.19 8.92,8.62 9.22,9.08 L8.62,9.38 C8.32,8.9 8.01,8.48 7.67,8.1 L8.28,7.81 Z" id="单" fill="#FFFFFF"></path>
            </g>
        </g>
    </g>
</svg>