<?xml version="1.0" encoding="UTF-8"?>
<svg width="55px" height="55px" viewBox="0 0 55 55" version="1.1" xmlns="http://www.w3.org/2000/svg" xmlns:xlink="http://www.w3.org/1999/xlink">
    <!-- Generator: Sketch 51.1 (57501) - http://www.bohemiancoding.com/sketch -->
    <title>危险源-录入</title>
    <desc>Created with Sketch.</desc>
    <defs></defs>
    <g id="中建" stroke="none" stroke-width="1" fill="none" fill-rule="evenodd">
        <g id="6、功能页" transform="translate(-148.000000, -599.000000)">
            <g id="Group-11" transform="translate(0.000000, 548.000000)">
                <g id="Group-2" transform="translate(8.000000, 9.000000)">
                    <g id="危险源-录入" transform="translate(140.000000, 42.000000)">
                        <rect id="Rectangle-5" fill="#F82F60" fill-rule="nonzero" x="0" y="0" width="55" height="55" rx="27.5"></rect>
                        <g id="Group-6" transform="translate(17.000000, 14.000000)" fill="#FFFFFF">
                            <polygon id="Fill-1" points="0 3.079846 0 24.639846 20.5333333 24.639846 20.5333333 10.779846 19.5066667 10.779846 19.5066667 23.6136927 1.02666667 23.6136927 1.02666667 4.107026 11.2933333 4.107026 11.2933333 3.079846"></polygon>
                            <path d="M9.26330533,15.1364547 L14.5670653,5.950868 L16.864232,7.27732133 L11.5609853,16.462908 L8.82029867,18.5567947 L9.26330533,15.1364547 Z M7.485632,20.8683347 L12.347412,17.1538547 L18.2666587,6.90156133 L14.190792,4.54844133 L8.27154533,14.8007347 L7.485632,20.8683347 Z" id="Fill-2"></path>
                            <path d="M16.184784,3.15833467 L17.031784,1.69071467 C17.208884,1.38374133 17.495324,1.164548 17.837204,1.07266133 C18.1785707,0.981288 18.5368773,1.02800133 18.8438507,1.20510133 C19.477304,1.571108 19.6949573,2.38371467 19.3289507,3.017168 L18.4819507,4.484788 L16.184784,3.15833467 Z M20.2185573,3.53050133 C20.8674107,2.40681467 20.4808707,0.964861333 19.357184,0.316008 C18.8130507,0.00236133333 18.1795973,-0.081312 17.5718107,0.0809013333 C16.9645373,0.243628 16.4568507,0.633248 16.1426907,1.17738133 L14.7823573,3.53409467 L18.858224,5.88721467 L20.2185573,3.53050133 Z" id="Fill-3"></path>
                        </g>
                    </g>
                </g>
            </g>
        </g>
    </g>
</svg>