<?xml version="1.0" encoding="UTF-8"?>
<svg width="32px" height="32px" viewBox="0 0 32 32" version="1.1" xmlns="http://www.w3.org/2000/svg" xmlns:xlink="http://www.w3.org/1999/xlink">
    <!-- Generator: Sketch 51.1 (57501) - http://www.bohemiancoding.com/sketch -->
    <title>危险作业预警</title>
    <desc>Created with Sketch.</desc>
    <defs>
        <polygon id="path-1" points="0 28 32 28 32 0 0 0"></polygon>
    </defs>
    <g id="中建" stroke="none" stroke-width="1" fill="none" fill-rule="evenodd">
        <g id="10、我的" transform="translate(-217.000000, -343.000000)">
            <g id="危险作业预警" transform="translate(217.000000, 343.000000)">
                <g id="Group-5" transform="translate(0.000000, 4.000000)">
                    <path d="M30,0 L24.441,0 C24.975,0.592 25.376,1.266 25.637,2 L30,2 L30,26 L2,26 L2,2 L6.363,2 C6.624,1.266 7.025,0.592 7.559,0 L2,0 C0.896,0 0,0.895 0,2 L0,26 C0,27.105 0.896,28 2,28 L30,28 C31.104,28 32,27.105 32,26 L32,2 C32,0.895 31.104,0 30,0" id="Fill-1" fill="#B0BEC5"></path>
                    <mask id="mask-2" fill="white">
                        <use xlink:href="#path-1"></use>
                    </mask>
                    <g id="Clip-4"></g>
                    <path d="M6,22 L26,22 L26,20 L6,20 L6,22 Z M4,24 L28,24 L28,18 L4,18 L4,24 Z" id="Fill-3" fill="#ED9999" mask="url(#mask-2)"></path>
                </g>
                <path d="M20.9998611,5.99995098 L18.8683785,5.99995098 L21.8318543,1.5544873 C22.0363527,1.2479898 22.0553525,0.853493027 21.8818539,0.528495682 C21.7073553,0.202998341 21.3683581,0 20.9998611,0 L15.999902,0 C15.6409049,0 15.3094076,0.192498427 15.1319091,0.503995882 L11.1319417,7.50393869 C10.9549432,7.81343616 10.9559432,8.19343306 11.1354417,8.50193054 C11.3139403,8.81042802 11.6434376,8.99992647 11.9999347,8.99992647 L15.2769079,8.99992647 L12.1319336,14.5038815 C11.8834356,14.938378 11.9949347,15.4898734 12.3929314,15.794871 C12.57293,15.9323698 12.7869282,15.9998693 12.9994265,15.9998693 C13.2574244,15.9998693 13.5129223,15.9013701 13.7069207,15.7068717 L21.7068553,7.70693703 C21.992853,7.42093937 22.0783523,6.99094288 21.9238536,6.61694594 C21.7688548,6.24394899 21.4043578,5.99995098 20.9998611,5.99995098 Z" id="Fill-1" fill="#F44336"></path>
            </g>
        </g>
    </g>
</svg>