<?xml version="1.0" encoding="UTF-8"?>
<svg width="55px" height="55px" viewBox="0 0 55 55" version="1.1" xmlns="http://www.w3.org/2000/svg" xmlns:xlink="http://www.w3.org/1999/xlink">
    <!-- Generator: Sketch 51.1 (57501) - http://www.bohemiancoding.com/sketch -->
    <title>危险源识别</title>
    <desc>Created with Sketch.</desc>
    <defs></defs>
    <g id="中建" stroke="none" stroke-width="1" fill="none" fill-rule="evenodd">
        <g id="6、功能页" transform="translate(-277.000000, -599.000000)">
            <g id="Group-11" transform="translate(0.000000, 548.000000)">
                <g id="Group-2" transform="translate(8.000000, 9.000000)">
                    <g id="危险源识别" transform="translate(269.000000, 42.000000)">
                        <rect id="Rectangle-5" fill="#F87C2F" fill-rule="nonzero" x="0" y="0" width="55" height="55" rx="27.5"></rect>
                        <polygon id="Fill-1" fill="#FFFFFF" points="28.5005156 20 23 27.0006562 26.2053005 27.0006562 25.5002344 32.001125 31.001 25.0004687 27.7956995 25.0004687"></polygon>
                        <g id="Group-6" transform="translate(15.000000, 15.000000)" fill="#FFFFFF">
                            <path d="M7.1318,25.122 L2.1918,25.122 C0.9798,25.12 -0.0002,24.138 -0.0002,22.924 L-0.0002,17.986 C-0.0002,17.778 0.1678,17.61 0.3758,17.61 C0.5818,17.61 0.7498,17.778 0.7498,17.986 L0.7498,22.924 C0.7498,23.724 1.3958,24.372 2.1918,24.372 L7.1318,24.372 C7.3398,24.374 7.5058,24.542 7.5058,24.748 C7.5058,24.956 7.3398,25.122 7.1318,25.122 M21.9298,25.122 L16.9918,25.122 C16.7838,25.122 16.6158,24.954 16.6158,24.748 C16.6158,24.54 16.7838,24.374 16.9918,24.372 L21.9298,24.372 C22.7258,24.372 23.3718,23.724 23.3718,22.924 L23.3718,17.986 C23.3738,17.778 23.5418,17.61 23.7498,17.61 C23.9558,17.61 24.1218,17.778 24.1218,17.986 L24.1218,22.924 C24.1218,24.138 23.1438,25.12 21.9298,25.122 M23.7478,8.506 C23.5398,8.506 23.3718,8.338 23.3718,8.132 L23.3718,3.192 C23.3718,2.396 22.7258,1.75 21.9298,1.75 L16.9918,1.75 C16.7838,1.75 16.6158,1.582 16.6158,1.374 C16.6158,1.168 16.7838,1 16.9918,1 L21.9298,1 C23.1418,1.002 24.1218,1.982 24.1218,3.192 L24.1218,8.132 C24.1218,8.338 23.9558,8.506 23.7478,8.506 M0.3758,8.506 C0.1678,8.506 -0.0002,8.338 -0.0002,8.132 L-0.0002,3.192 C0.0018,1.982 0.9818,1.002 2.1918,1 L7.1318,1 C7.3398,1 7.5058,1.168 7.5058,1.374 C7.5058,1.582 7.3398,1.75 7.1318,1.75 L2.1918,1.75 C1.3958,1.75 0.7498,2.396 0.7498,3.192 L0.7498,8.132 C0.7498,8.338 0.5818,8.506 0.3758,8.506" id="Fill-1" stroke="#FFFFFF" stroke-width="0.3"></path>
                            <polygon id="Fill-4" points="4.044 18.917 20.078 18.917 20.078 18.179 4.044 18.179"></polygon>
                        </g>
                    </g>
                </g>
            </g>
        </g>
    </g>
</svg>