<?xml version="1.0" encoding="UTF-8"?>
<svg width="20px" height="22px" viewBox="0 0 20 22" version="1.1" xmlns="http://www.w3.org/2000/svg" xmlns:xlink="http://www.w3.org/1999/xlink">
    <!-- Generator: Sketch 51.1 (57501) - http://www.bohemiancoding.com/sketch -->
    <title>地点</title>
    <desc>Created with Sketch.</desc>
    <defs></defs>
    <g id="中建" stroke="none" stroke-width="1" fill="none" fill-rule="evenodd">
        <g id="2、设备飞检-02-图标版" transform="translate(-10.000000, -265.000000)" fill="#D37828">
            <g id="地点" transform="translate(10.000000, 265.000000)">
                <path d="M9.04787981,-5.68434189e-14 L9.04787981,2.26151756 L3.21606888,2.26151756 L0,5.42872789 L3.21606888,8.59548582 L9.04787981,8.59548582 L9.04787981,10.4046094 L3.61915192,10.4046094 L3.61915192,16.7385777 L9.04787981,16.7385777 L9.04787981,21.7149115 L9.95266779,21.7149115 L9.95266779,16.7385777 L15.7844787,16.7385777 L19.001,13.5718197 L15.7844787,10.4046094 L9.95266779,10.4046094 L9.95266779,8.59548582 L15.3813957,8.59548582 L15.3813957,2.26151756 L9.95266779,2.26151756 L9.95266779,-5.68434189e-14 L9.04787981,-5.68434189e-14 Z M1.33410988,5.42872789 L3.56984098,3.16630554 L14.4770601,3.16630554 L14.4770601,7.69069784 L3.56984098,7.69069784 L1.33410988,5.42872789 Z" id="Fill-1"></path>
            </g>
        </g>
    </g>
</svg>