<?xml version="1.0" encoding="UTF-8"?>
<svg width="20px" height="22px" viewBox="0 0 20 22" version="1.1" xmlns="http://www.w3.org/2000/svg" xmlns:xlink="http://www.w3.org/1999/xlink">
    <!-- Generator: Sketch 51.1 (57501) - http://www.bohemiancoding.com/sketch -->
    <title>坐标</title>
    <desc>Created with Sketch.</desc>
    <defs></defs>
    <g id="中建" stroke="none" stroke-width="1" fill="none" fill-rule="evenodd">
        <g id="2、设备飞检-02-图标版" transform="translate(-40.000000, -265.000000)">
            <g id="坐标" transform="translate(40.000000, 265.000000)">
                <path d="M15.8127605,14.8241667 L10.4969271,19.9858333 L5.18109378,14.8241667 C2.27317711,11.905 2.27317711,7.15458333 5.17984378,4.23666667 L5.22484378,4.19208333 C6.63317712,2.77833333 8.50567713,2 10.4969271,2 C12.4881771,2 14.3610938,2.77833333 15.7694272,4.19208333 L15.8127605,4.23541667 C18.7206772,7.15458333 18.7206772,11.905 15.8127605,14.8241667" id="Fill-1" fill="#A9B1B6"></path>
                <path d="M10.3291667,10.5833333 C9.41166667,10.5833333 8.665,9.83583333 8.665,8.91666667 C8.665,7.9975 9.41166667,7.25 10.3291667,7.25 C11.2466667,7.25 11.9933333,7.9975 11.9933333,8.91666667 C11.9933333,9.83583333 11.2466667,10.5833333 10.3291667,10.5833333" id="Fill-4" fill="#FFFFFF"></path>
            </g>
        </g>
    </g>
</svg>