<?xml version="1.0" encoding="UTF-8"?>
<svg width="20px" height="22px" viewBox="0 0 20 22" version="1.1" xmlns="http://www.w3.org/2000/svg" xmlns:xlink="http://www.w3.org/1999/xlink">
    <!-- Generator: Sketch 51.1 (57501) - http://www.bohemiancoding.com/sketch -->
    <title>备注ico</title>
    <desc>Created with Sketch.</desc>
    <defs>
        <polygon id="path-1" points="0 0 20 0 20 20 0 20"></polygon>
    </defs>
    <g id="中建" stroke="none" stroke-width="1" fill="none" fill-rule="evenodd">
        <g id="设备飞检-04-提交飞检" transform="translate(-35.000000, -264.000000)">
            <g id="Group-5" transform="translate(17.000000, 105.000000)">
                <g id="备注ico" transform="translate(18.000000, 159.000000)">
                    <mask id="mask-2" fill="white">
                        <use xlink:href="#path-1"></use>
                    </mask>
                    <g id="Clip-2"></g>
                    <path d="M13.75,15 C13.060625,15 12.5,14.439375 12.5,13.75 C12.5,13.060625 13.060625,12.5 13.75,12.5 C14.439375,12.5 15,13.060625 15,13.75 C15,14.439375 14.439375,15 13.75,15 Z M13.75,11.25 C12.369375,11.25 11.25,12.369375 11.25,13.75 C11.25,15.130625 12.369375,16.25 13.75,16.25 C15.130625,16.25 16.25,15.130625 16.25,13.75 C16.25,12.369375 15.130625,11.25 13.75,11.25 Z M19.983125,18.544375 L19.980625,18.529375 L19.980625,11.45375 C20.038125,10.7475 19.8075,10.0225 19.2675,9.4825 L10.5175,0.7325 C10.029375,0.244375 9.389375,0 8.75,0 C8.110625,0 7.470625,0.244375 6.9825,0.7325 L0.7325,6.9825 C-0.244375,7.958125 -0.244375,9.541875 0.7325,10.5175 L9.4825,19.2675 C9.970625,19.755625 10.610625,20 11.25,20 L18.75,20 C19.07875,20 19.3975,19.87 19.63375,19.63375 C19.919375,19.348125 20.049375,18.943125 19.983125,18.544375 Z" id="Fill-1" fill="#F44336" mask="url(#mask-2)"></path>
                </g>
            </g>
        </g>
    </g>
</svg>