<?xml version="1.0" encoding="UTF-8"?>
<svg width="55px" height="55px" viewBox="0 0 55 55" version="1.1" xmlns="http://www.w3.org/2000/svg" xmlns:xlink="http://www.w3.org/1999/xlink">
    <!-- Generator: Sketch 51.1 (57501) - http://www.bohemiancoding.com/sketch -->
    <title>安全预警</title>
    <desc>Created with Sketch.</desc>
    <defs></defs>
    <g id="中建" stroke="none" stroke-width="1" fill="none" fill-rule="evenodd">
        <g id="功能页" transform="translate(-27.000000, -599.000000)">
            <g id="Group-11" transform="translate(0.000000, 548.000000)">
                <g id="Group-2" transform="translate(8.000000, 9.000000)">
                    <g id="安全预警" transform="translate(19.000000, 42.000000)">
                        <rect id="Rectangle-5" fill="#FEC93E" fill-rule="nonzero" x="0" y="0" width="55" height="55" rx="27.5"></rect>
                        <polygon id="Fill-1" fill="#FFFFFF" points="28.5005156 20 23 27.0006562 26.2053005 27.0006562 25.5002344 32.001125 31.001 25.0004687 27.7956995 25.0004687"></polygon>
                        <path d="M38.625,34.375 L16.125,34.375 L16.125,32.7679375 C16.125,31.415125 16.6515,30.1444375 17.60775,29.187625 L19.937625,26.85775 C21.1065,25.6894375 21.75,24.13525 21.75,22.4820625 L21.75,19.75 C21.75,16.648375 24.273375,14.125 27.375,14.125 C30.476625,14.125 33,16.648375 33,19.75 L33,22.4820625 C33,24.13525 33.6435,25.6894375 34.812375,26.85775 L37.14225,29.187625 C38.0985,30.1444375 38.625,31.415125 38.625,32.7679375 L38.625,34.375 Z M30.1875,36.0625 C30.1875,37.6133125 28.9258125,38.875 27.375,38.875 C25.8241875,38.875 24.5625,37.6133125 24.5625,36.0625 L24.5625,35.5 L30.1875,35.5 L30.1875,36.0625 Z M39.75,32.7679375 C39.75,31.11475 39.1065,29.5605625 37.937625,28.39225 L35.60775,26.062375 C34.6515,25.1055625 34.125,23.834875 34.125,22.4820625 L34.125,19.75 C34.125,16.0279375 31.0970625,13 27.375,13 C23.6529375,13 20.625,16.0279375 20.625,19.75 L20.625,22.4820625 C20.625,23.834875 20.0985,25.1055625 19.14225,26.062375 L16.812375,28.39225 C15.6435,29.5605625 15,31.11475 15,32.7679375 L15,35.5 L23.4375,35.5 L23.4375,36.0625 C23.4375,38.2331875 25.20375,40 27.375,40 C29.54625,40 31.3125,38.2331875 31.3125,36.0625 L31.3125,35.5 L39.75,35.5 L39.75,32.7679375 Z" id="Fill-1" fill="#FFFFFF"></path>
                    </g>
                </g>
            </g>
        </g>
    </g>
</svg>