<?xml version="1.0" encoding="UTF-8"?>
<svg width="55px" height="55px" viewBox="0 0 55 55" version="1.1" xmlns="http://www.w3.org/2000/svg" xmlns:xlink="http://www.w3.org/1999/xlink">
    <!-- Generator: Sketch 51.1 (57501) - http://www.bohemiancoding.com/sketch -->
    <title>安全检查</title>
    <desc>Created with Sketch.</desc>
    <defs></defs>
    <g id="中建" stroke="none" stroke-width="1" fill="none" fill-rule="evenodd">
        <g id="功能页" transform="translate(-27.000000, -122.000000)">
            <g id="Group-7" transform="translate(0.000000, 77.000000)">
                <g id="安全检查" transform="translate(27.000000, 45.000000)">
                    <rect id="Rectangle-5" fill="#01B7F0" fill-rule="nonzero" x="0" y="0" width="55" height="55" rx="27.5"></rect>
                    <path d="M31.7866031,33.0194787 C33.9689981,31.0853676 35.3705506,27.8008213 35.8645105,24.6685836 L36.0877574,23.2602503 L38.9816216,23.2602503 C38.76985,27.7564849 35.8290414,31.5412503 31.7866031,33.0194787 Z M31.4595568,40.9948182 L23.5775846,40.9948182 C25.6227975,39.6318645 26.8856031,37.2423923 27.5183099,35.732346 C28.1515383,37.2423923 29.4143438,39.6318645 31.4595568,40.9948182 Z M16.0555198,23.2602503 L18.9488623,23.2602503 L19.1726309,24.6743213 C19.8773191,28.825775 21.4457852,31.4776145 23.2265444,33.011133 C19.1961031,31.5266454 16.2667698,27.7476176 16.0555198,23.2602503 Z M27.5183099,18.0452441 L35.7805321,18.5345096 L34.8348623,24.5058429 C34.1364333,28.930096 31.5492728,33.6923491 27.5183099,33.6923491 C23.5410722,33.6923491 20.9779056,29.0756238 20.202279,24.5053213 L19.2566093,18.5345096 L27.5183099,18.0452441 Z M36.2531062,22.2170404 L36.9911772,17.5611948 L27.5183099,16.9999478 L18.0459642,17.5611948 L18.7835136,22.2170404 L14.9997914,22.2170404 L14.9997914,22.7386454 C14.9997914,29.2858306 20.2726957,34.6218491 26.7948438,34.7303429 C26.159529,36.4620713 24.1237049,40.9948182 20.2158407,40.9948182 L20.2158407,42.0380281 L34.820779,42.0380281 L34.820779,40.9948182 C30.9134364,40.9948182 28.8776123,36.4620713 28.2422975,34.7303429 C34.7644457,34.6218491 40.0368284,29.2858306 40.0368284,22.7386454 L40.0368284,22.2170404 L36.2531062,22.2170404 Z" id="Fill-1" fill="#FFFFFF"></path>
                </g>
            </g>
        </g>
    </g>
</svg>