<?xml version="1.0" encoding="UTF-8"?>
<svg width="20px" height="22px" viewBox="0 0 20 22" version="1.1" xmlns="http://www.w3.org/2000/svg" xmlns:xlink="http://www.w3.org/1999/xlink">
    <!-- Generator: Sketch 51.1 (57501) - http://www.bohemiancoding.com/sketch -->
    <title>安全负责人ico</title>
    <desc>Created with Sketch.</desc>
    <defs></defs>
    <g id="中建二" stroke="none" stroke-width="1" fill="none" fill-rule="evenodd">
        <g id="28、考核评价" transform="translate(-35.000000, -194.000000)" fill="#4CBBA2">
            <g id="Group-5" transform="translate(17.000000, 83.000000)">
                <g id="安全负责人ico" transform="translate(18.000000, 111.000000)">
                    <path d="M16.0651177,8.65025539 L9.62143615,14.8848159 C9.58113765,14.9506534 9.53178441,15.0165904 9.47191708,15.0726766 C9.28289552,15.2557612 9.0327131,15.3435887 8.78498507,15.3386799 C8.53738972,15.3435887 8.28787065,15.2557612 8.09871642,15.0726766 C8.03898176,15.0165904 7.98896517,14.9506534 7.94866667,14.8848159 L4.50508458,11.5516153 C4.13841791,11.1976517 4.13841791,10.6243516 4.50508458,10.2680663 C4.87175124,9.91436816 5.46641128,9.91436816 5.83307794,10.2680663 L8.78498507,13.1255124 L14.7377546,7.36680597 C15.1044212,7.01297512 15.6985837,7.01297512 16.0651177,7.36680597 C16.4317844,7.72050415 16.4317844,8.29642454 16.0651177,8.65025539 M19.5009386,3.09149775 C19.2160299,2.85169739 18.8408391,2.72059259 18.4527794,2.72059259 C18.4174229,2.72059259 18.3820332,2.72059259 18.3466766,2.72286733 C18.3253167,2.7250191 18.0782189,2.73872901 17.6921493,2.73872901 C17.0522488,2.73872901 15.8028955,2.69799891 14.6193466,2.43791035 C13.0913201,2.1010033 11.3276053,0.540471949 10.8145373,0.232952041 C10.5559303,0.0768558707 10.2582189,6.6334992e-06 9.95997678,6.6334992e-06 C9.66289552,6.6334992e-06 9.36515091,0.0768558707 9.10707463,0.230677304 C9.04488557,0.269101922 7.19825207,2.03986205 5.39204975,2.43791035 C4.20913101,2.69799891 2.93609619,2.73872901 2.29672637,2.73872901 C1.91052405,2.73872901 1.66422222,2.7250191 1.63974461,2.72286733 C1.6061791,2.72059259 1.5726136,2.72059259 1.53855058,2.72059259 C1.1498607,2.72059259 0.773475954,2.85169739 0.487406302,3.09149775 C0.176859038,3.3515863 9.95024857e-06,3.71566725 9.95024857e-06,4.09785388 L9.95024857e-06,7.54214447 C9.95024857e-06,20.2745261 9.29443781,21.913997 9.688534,21.9795955 C9.77884909,21.9933054 9.86966169,22.0000066 9.96060697,22.0000066 C10.0509221,22.0000066 10.1430282,21.9933054 10.2320498,21.9795955 C10.6266766,21.913997 19.9894959,20.2745261 19.9894959,7.54214447 L19.9894959,4.09785388 C19.9894959,3.71566725 19.8120166,3.3515863 19.5009386,3.09149775" id="Fill-1"></path>
                </g>
            </g>
        </g>
    </g>
</svg>