<?xml version="1.0" encoding="UTF-8"?>
<svg width="20px" height="22px" viewBox="0 0 20 22" version="1.1" xmlns="http://www.w3.org/2000/svg" xmlns:xlink="http://www.w3.org/1999/xlink">
    <!-- Generator: Sketch 51.1 (57501) - http://www.bohemiancoding.com/sketch -->
    <title>安拆单位ico</title>
    <desc>Created with Sketch.</desc>
    <defs>
        <polygon id="path-1" points="2.68292683e-06 0.00753902439 19.4121486 0.00753902439 19.4121486 21.9731654 2.68292683e-06 21.9731654"></polygon>
        <polygon id="path-3" points="0 -7.51997681e-06 11.9863486 -7.51997681e-06 11.9863486 11.0918847 0 11.0918847"></polygon>
    </defs>
    <g id="中建" stroke="none" stroke-width="1" fill="none" fill-rule="evenodd">
        <g id="27、新增设备" transform="translate(-20.000000, -695.000000)">
            <g id="Group-3" transform="translate(-1.000000, 687.000000)">
                <g id="安拆单位ico" transform="translate(21.000000, 8.019290)">
                    <mask id="mask-2" fill="white">
                        <use xlink:href="#path-1"></use>
                    </mask>
                    <g id="Clip-6"></g>
                    <path d="M5.81116854,4.38091902 L6.06864902,3.24359951 L7.20167585,3.24359951 C7.90991488,3.24359951 8.54072463,2.77145805 8.70390024,2.12766293 L9.03432951,0.947389756 L10.3776978,0.947389756 L10.6781588,2.05903366 C10.8455198,2.71570683 11.4935002,3.20923122 12.1802759,3.20923122 L13.3133027,3.20923122 L13.6008588,4.37662634 L5.81116854,4.37662634 L5.81116854,4.38091902 Z M5.02147585,4.99463854 C5.18883683,5.20066049 5.44634415,5.32088244 5.73392707,5.32088244 L13.6823929,5.32088244 C13.9699759,5.32088244 14.2274832,5.20066049 14.3948441,4.99463854 C14.5236515,4.83586293 14.5836954,4.63410683 14.57511,4.41958 L14.5664978,4.20923854 L18.5236271,4.20923854 L18.5236271,21.0847678 L0.897012439,21.0847678 L0.897012439,4.21353122 L4.85411488,4.21353122 L4.84550268,4.42387268 C4.83262463,4.63410683 4.89696122,4.83586293 5.02147585,4.99463854 Z M19.1158563,3.62559463 C18.9227124,3.43674341 18.6694978,3.33371902 18.3991124,3.33371902 L14.31331,3.33371902 L14.2532661,3.09762146 C14.1287515,2.59980439 13.6352539,2.22639463 13.1158393,2.22639463 L11.961349,2.22639463 L11.9398588,2.22210195 C11.854032,2.20490439 11.7639124,2.13198244 11.725332,2.05903366 L11.7167466,2.03754341 L11.4205783,0.878760488 C11.2918783,0.380943415 10.8025393,0.00753365854 10.2832588,0.00753365854 L9.1459661,0.00753365854 C8.6223661,0.00753365854 8.1330539,0.380943415 8.00853927,0.878760488 L7.71247829,2.03754341 L7.70389293,2.05903366 C7.66520512,2.13198244 7.57508561,2.20490439 7.48925878,2.22210195 L7.46776854,2.22639463 L6.3046661,2.22639463 C5.78109293,2.22639463 5.29186122,2.59980439 5.16737341,3.09762146 L5.10730268,3.33803854 L1.01720756,3.33803854 C0.459239268,3.33803854 2.68292683e-06,3.78437024 2.68292683e-06,4.33375317 L2.68292683e-06,20.9774507 C2.68292683e-06,21.5268068 0.454946585,21.9731654 1.01720756,21.9731654 L18.3991124,21.9731654 C18.9570807,21.9731654 19.4120246,21.5268068 19.4120246,20.9774507 L19.4120246,4.32946049 C19.4163173,4.0633678 19.3090002,3.81004585 19.1158563,3.62559463 Z" id="Fill-5" fill="#9B9B9B" mask="url(#mask-2)"></path>
                    <g id="Group-3" mask="url(#mask-2)">
                        <g transform="translate(4.000000, 7.980710)">
                            <mask id="mask-4" fill="white">
                                <use xlink:href="#path-3"></use>
                            </mask>
                            <g id="Clip-2" stroke="none" fill="none"></g>
                            <path d="M11.9361232,9.39316121 C11.9361232,9.39316121 10.4458899,8.03863958 8.52209961,6.11486501 C7.2227654,4.81556225 7.08661337,4.68735256 7.08661337,4.68735256 C7.0193945,4.62032241 6.87509567,4.58554915 6.76107208,4.64674443 L6.58627785,4.74018087 C5.71790564,3.87180865 5.49224902,3.48359371 5.52461599,2.81211271 C5.55731324,2.11273132 5.97003145,1.5737536 6.47028834,1.16705898 C6.97474443,0.760364351 8.20086763,0.847965924 8.55257929,0.902697248 C8.9045426,0.95768021 8.71317169,0.644374836 8.53021494,0.47370118 C8.18237221,0.150314548 6.84438008,-0.305355177 5.40464744,0.288605505 C3.9648519,0.882550459 3.11083879,1.70793971 2.89310878,1.92571691 C2.6755675,2.14319528 2.37262647,2.48699607 2.18366186,2.75736566 C1.99444561,3.02792398 2.24035911,3.44856881 2.02689122,3.66224115 C1.88668152,3.80243512 1.62859502,3.82523984 1.46561206,3.82479948 L1.35201311,3.71121625 C1.28436959,3.64424902 1.17544168,3.64424902 1.10786107,3.71121625 L0.0502568807,4.76875754 C-0.016757536,4.83621232 -0.016757536,4.94520315 0.0502568807,5.01265793 L1.75847182,6.72085714 C1.82598952,6.78782438 1.93479161,6.7879502 2.0024194,6.72110878 L3.05996068,5.66347313 C3.12705374,5.59597117 3.12705374,5.48693316 3.05996068,5.41935256 L2.76489908,5.12452687 C2.78123984,4.89647969 2.92358847,4.62831193 3.0801232,4.54476802 C3.27536304,4.43909567 3.7999502,4.34166448 4.19461337,4.45137877 C4.57276278,4.5569882 4.88606815,4.88639843 5.66273394,5.66331586 L5.54078375,5.8664194 C5.46969594,5.98670249 5.51436173,6.12475754 5.5815806,6.19196068 C5.5815806,6.19196068 5.70972739,6.32809699 7.00909305,7.62769856 C8.9328519,9.55141022 10.2872005,11.0417064 10.2872005,11.0417064 C10.3547811,11.1086107 10.4636933,11.1086107 10.5313526,11.0417064 L11.9358716,9.63712451 C12.0030747,9.56973263 12.0032163,9.4606789 11.9361232,9.39316121" id="Fill-1" stroke="none" fill="#9B9B9B" fill-rule="evenodd" mask="url(#mask-4)"></path>
                        </g>
                    </g>
                </g>
            </g>
        </g>
    </g>
</svg>