<?xml version="1.0" encoding="UTF-8"?>
<svg width="15px" height="15px" viewBox="0 0 15 15" version="1.1" xmlns="http://www.w3.org/2000/svg" xmlns:xlink="http://www.w3.org/1999/xlink">
    <!-- Generator: Sketch 51.1 (57501) - http://www.bohemiancoding.com/sketch -->
    <title>实施情况ico</title>
    <desc>Created with Sketch.</desc>
    <defs></defs>
    <g id="中建" stroke="none" stroke-width="1" fill="none" fill-rule="evenodd">
        <g id="26、危险源信息" transform="translate(-25.000000, -537.000000)" fill="#333333" fill-rule="nonzero">
            <g id="Group-9" transform="translate(25.000000, 533.000000)">
                <g id="实施情况ico" transform="translate(0.000000, 4.000000)">
                    <path d="M0.37691522,12.207751 C0.168539326,12.207751 0,12.0330368 0,11.8170267 L0,0.390724269 C0,0.174714104 0.168539326,1.91902967e-13 0.37691522,1.91846539e-13 L14.6230848,1.91846539e-13 C14.8314607,1.91846539e-13 15,0.174714104 15,0.390724269 L15,11.8170267 C15,12.0330368 14.8314607,12.207751 14.6230848,12.207751 L9.79366701,12.207751 L7.73442288,14.8538755 C7.6639428,14.9459975 7.5566905,15 7.4433095,15 L7.4371808,15 C7.32073544,14.9968234 7.21348315,14.9396442 7.14300306,14.8443456 L5.22165475,12.207751 L0.37691522,12.207751 Z M2.39938713,3.30368488 L12.5975485,3.30368488 C12.8059244,3.30368488 12.9744637,3.12897078 12.9744637,2.91296061 C12.9744637,2.69695044 12.8059244,2.52223634 12.5975485,2.52223634 L2.39938713,2.52223634 C2.19101124,2.52223634 2.02247191,2.69695044 2.02247191,2.91296061 C2.02247191,3.12897078 2.19101124,3.30368488 2.39938713,3.30368488 Z M2.39938713,5.42884371 L12.5975485,5.42884371 C12.8059244,5.42884371 12.9744637,5.25412961 12.9744637,5.03811944 C12.9744637,4.82210928 12.8059244,4.64739517 12.5975485,4.64739517 L2.39938713,4.64739517 C2.19101124,4.64739517 2.02247191,4.82210928 2.02247191,5.03811944 C2.02247191,5.25412961 2.19101124,5.42884371 2.39938713,5.42884371 Z M2.39938713,7.55717916 L12.5975485,7.55717916 C12.8059244,7.55717916 12.9744637,7.38246506 12.9744637,7.16645489 C12.9744637,6.95044473 12.8059244,6.77573062 12.5975485,6.77573062 L2.39938713,6.77573062 C2.19101124,6.77573062 2.02247191,6.95044473 2.02247191,7.16645489 C2.02247191,7.38246506 2.19101124,7.55717916 2.39938713,7.55717916 Z M7.87538304,9.29479034 C7.87538304,9.07878018 7.70684372,8.90406607 7.49846782,8.90406607 L2.39938713,8.90406607 C2.19101124,8.90406607 2.02247191,9.07878018 2.02247191,9.29479034 C2.02247191,9.51080051 2.19101124,9.68551461 2.39938713,9.68551461 L7.49846782,9.68551461 C7.70684372,9.68233799 7.87538304,9.50762389 7.87538304,9.29479034 Z" id="speech-bubble-24"></path>
                </g>
            </g>
        </g>
    </g>
</svg>