<?xml version="1.0" encoding="UTF-8"?>
<svg width="55px" height="55px" viewBox="0 0 55 55" version="1.1" xmlns="http://www.w3.org/2000/svg" xmlns:xlink="http://www.w3.org/1999/xlink">
    <!-- Generator: Sketch 51.1 (57501) - http://www.bohemiancoding.com/sketch -->
    <title>安全审核ico</title>
    <desc>Created with Sketch.</desc>
    <defs>
        <polygon id="path-1" points="0 0 23.9869519 0 23.9869519 29.1271401 0 29.1271401"></polygon>
    </defs>
    <g id="中建" stroke="none" stroke-width="1" fill="none" fill-rule="evenodd">
        <g id="6、功能页" transform="translate(-197.000000, -441.000000)">
            <g id="安全审核" transform="translate(197.000000, 441.000000)">
                <g id="Group-3">
                    <rect id="Rectangle-5" fill="#9258C5" fill-rule="nonzero" x="0" y="0" width="55" height="55" rx="27.5"></rect>
                    <g transform="translate(16.000000, 13.000000)">
                        <mask id="mask-2" fill="white">
                            <use xlink:href="#path-1"></use>
                        </mask>
                        <g id="Clip-2"></g>
                        <path d="M5.17623544,20.6319207 L5.17623544,17.6318246 C5.17623544,17.2685574 5.22231351,17.0974823 5.34721441,16.9995363 C5.481797,16.8957285 5.72785105,16.8534222 6.21976697,16.8534222 L8.87209129,16.8534222 L9.01426547,16.7611459 C9.27571892,16.5978547 9.51783303,16.4036925 9.73498619,16.1845694 C10.4999111,15.3966535 10.5787339,14.6297826 10.5576168,14.2376865 C10.5730162,13.8360288 10.3731123,13.3536024 9.89450571,12.62517 C9.6921033,12.3209297 9.47598318,12.0258907 9.24679399,11.741158 C8.75290811,11.1453381 8.48189309,10.3958126 8.4799952,9.62123003 C8.4799952,7.7954042 9.96564084,6.29438318 11.8606318,6.2041009 L12.1450763,6.2041009 C14.0286078,6.29438318 15.5027219,7.79355435 15.5027219,9.61938018 C15.5027219,10.3958126 15.227839,11.147236 14.7301093,11.7430318 C14.5110102,12.0179147 14.3015207,12.304233 14.1073586,12.5963892 C14.0170763,12.7328216 13.9305417,12.8730979 13.8479712,13.0153682 C13.5404396,13.5457706 13.4135688,13.9110318 13.4251003,14.2376865 C13.4039832,14.6278847 13.4827339,15.3946835 14.245785,16.1827195 C14.4629622,16.4036925 14.7051724,16.5978547 14.9665057,16.7631159 L15.1125477,16.8553922 L17.7743856,16.8553922 C18.7161514,16.8553922 18.8045117,16.9918246 18.8045117,17.6298547 L18.8045117,20.6049898 C18.8045117,20.7146114 18.7623015,20.8184192 18.6834547,20.8971219 C18.6066018,20.9740949 18.5009682,21.0182751 18.3913225,21.0182751 L5.58745465,21.0451339 C5.47795315,21.0451339 5.37227147,21.0028997 5.29541862,20.9240769 C5.22043964,20.8490739 5.17810931,20.7434402 5.17623544,20.6319207 M17.7666979,15.6791279 L15.4603916,15.6791279 C15.327827,15.5868757 15.2028781,15.481242 15.0895568,15.3639327 C14.6186138,14.8796805 14.589809,14.4645213 14.5993706,14.3088456 L14.6013405,14.201194 L14.6013405,14.1973502 C14.6013405,14.1512721 14.6762234,13.930155 14.8645718,13.609218 C14.9357069,13.488161 15.0106859,13.3689778 15.0895568,13.2517646 C15.2605117,12.9922811 15.4469862,12.7386354 15.6391784,12.4964252 C16.3118511,11.6949838 16.680836,10.6744673 16.680836,9.62507387 C16.680836,7.16892973 14.7012805,5.15091171 12.1738811,5.03172853 L11.8299532,5.03172853 C9.2909982,5.15091171 7.29991111,7.16892973 7.29991111,9.62507387 C7.30188108,10.6802571 7.67473393,11.7046655 8.34928048,12.5118006 L8.3838991,12.5560048 C8.5684036,12.7905514 8.74332252,13.0326414 8.91045766,13.2805694 C9.24679399,13.7918486 9.38325045,14.1339267 9.3795027,14.1954523 L9.3795027,14.3050018 C9.38906426,14.4586835 9.36213333,14.866155 8.91432553,15.3428156 L8.88746667,15.3697225 C8.78171291,15.4792721 8.65878198,15.5850018 8.51838559,15.6810979 L6.21976697,15.6810979 C4.6841994,15.6791279 3.9999952,16.2806655 3.9999952,17.6298547 L3.9999952,20.6319207 C3.9999952,21.0566895 4.16525646,21.4564492 4.46704625,21.7581429 C4.76876396,22.0561129 5.16657778,22.2233441 5.58942462,22.2233441 L18.3932925,22.1963892 C19.2697369,22.1925453 19.9788781,21.4833802 19.9788781,20.6069598 L19.9788781,17.6298547 C19.980752,16.2806655 19.2985177,15.6772781 17.7666979,15.6791279 M8.90661862,19.7228589 L15.0895135,19.7228589 L15.0895135,18.5447447 L8.90661862,18.5447447 L8.90661862,19.7228589 Z M23.9869818,4.20551444 L22.8188535,4.20551444 C22.8188535,4.20551444 20.0930781,4.12765348 17.3673027,3.03725775 C14.5634952,1.86912941 12.6945326,0.545108021 12.6945326,0.545108021 L11.9934845,-4.27807487e-06 L11.2926075,0.467247059 C11.2926075,0.467247059 9.42343102,1.79126845 6.61979465,2.95939679 C3.89401925,4.12765348 1.16828663,4.12765348 1.16828663,4.12765348 L-1.28342247e-05,4.12765348 L-1.28342247e-05,16.4326374 C-1.28342247e-05,22.5851936 7.78792299,29.1271401 11.9934845,29.1271401 C16.199046,29.1271401 23.9869818,22.5851936 23.9869818,16.4326374 L23.9869818,4.20551444 Z" id="Fill-1" fill="#FFFFFF" mask="url(#mask-2)"></path>
                    </g>
                </g>
            </g>
        </g>
    </g>
</svg>