<?xml version="1.0" encoding="UTF-8"?>
<svg width="15px" height="15px" viewBox="0 0 15 15" version="1.1" xmlns="http://www.w3.org/2000/svg" xmlns:xlink="http://www.w3.org/1999/xlink">
    <!-- Generator: Sketch 51.1 (57501) - http://www.bohemiancoding.com/sketch -->
    <title>形象进度ico</title>
    <desc>Created with Sketch.</desc>
    <defs></defs>
    <g id="中建" stroke="none" stroke-width="1" fill="none" fill-rule="evenodd">
        <g id="26、危险源信息" transform="translate(-25.000000, -342.000000)" fill="#333333" fill-rule="nonzero">
            <g id="Group-9" transform="translate(25.000000, 339.000000)">
                <g id="形象进度ico" transform="translate(0.000000, 3.000000)">
                    <path d="M14.8209348,0.471672652 C15.0200174,0.765702358 15.0537083,1.12405106 14.9189447,1.45483448 L10.9954859,10.9985487 C10.8300941,11.3997767 10.4564314,11.6509271 10.0215125,11.6509271 C9.56209104,11.6509271 9.17005143,11.3691486 9.02303658,10.9372925 L7.75809629,7.24048149 L4.0612853,5.97860401 C3.64168041,5.83465196 3.35990194,5.4579264 3.34765071,5.01381904 C3.33539947,4.56971167 3.58961265,4.17460925 4.00002912,4.00615473 L13.5437433,0.0826958546 C13.6754441,0.0275652849 13.8102077,1.98951966e-13 13.9480341,1.98951966e-13 C14.2971944,1.98951966e-13 14.6218522,0.174580138 14.8209348,0.471672652 Z M5.63250654,8.83620521 C5.77952139,8.68919035 6.01535772,8.68919035 6.16237257,8.83620521 C6.30938743,8.98322006 6.30938743,9.21905638 6.16237257,9.36607124 L0.91578002,14.6157266 C0.842272593,14.689234 0.747325501,14.7259877 0.649315599,14.7259877 C0.551305697,14.7259877 0.456358605,14.689234 0.382851179,14.6157266 C0.235836326,14.4687117 0.235836326,14.2328754 0.382851179,14.0858606 L5.63250654,8.83620521 Z M0.110261139,10.012324 L2.0122658,8.11338218 C2.15928065,7.96636733 2.39511697,7.96636733 2.54213183,8.11338218 C2.68914668,8.26039703 2.68914668,8.49623336 2.54213183,8.64324821 L0.64318998,10.5421901 C0.569682554,10.6156975 0.474735462,10.6524512 0.37672556,10.6524512 C0.278715658,10.6524512 0.183768566,10.6156975 0.110261139,10.5421901 C-0.0367537132,10.3951752 -0.0367537132,10.1593389 0.110261139,10.012324 Z M4.45638772,14.8852538 C4.30937287,14.7413018 4.30937287,14.5024027 4.45945053,14.3553878 L6.35839238,12.456446 C6.50540723,12.3094311 6.74124356,12.3094311 6.88825841,12.456446 C7.03527326,12.6034608 7.03527326,12.8392971 6.88825841,12.986312 L4.98931656,14.8852538 C4.91580914,14.9587613 4.82086204,14.995515 4.72285214,14.995515 C4.62484224,14.995515 4.52989515,14.9587613 4.45638772,14.8852538 Z" id="orientation"></path>
                </g>
            </g>
        </g>
    </g>
</svg>