<?xml version="1.0" encoding="UTF-8"?>
<svg width="32px" height="32px" viewBox="0 0 32 32" version="1.1" xmlns="http://www.w3.org/2000/svg" xmlns:xlink="http://www.w3.org/1999/xlink">
    <!-- Generator: Sketch 51.1 (57501) - http://www.bohemiancoding.com/sketch -->
    <title>待验收</title>
    <desc>Created with Sketch.</desc>
    <defs>
        <polygon id="path-1" points="0 32 32 32 32 0 0 0"></polygon>
        <polygon id="path-3" points="0 0.100309677 12.8297142 0.100309677 12.8297142 12.1378903 0 12.1378903"></polygon>
    </defs>
    <g id="中建" stroke="none" stroke-width="1" fill="none" fill-rule="evenodd">
        <g id="10、我的" transform="translate(-219.000000, -180.000000)">
            <g id="待验收" transform="translate(219.000000, 180.000000)">
                <g id="Group-6">
                    <path d="M24,0 L4,0 C1.791,0 0,1.791 0,4 L0,28 C0,30.209 1.791,32 4,32 L15,32 L15,30 L4,30 C2.898,30 2,29.104 2,28 L2,4 C2,2.896 2.898,2 4,2 L24,2 C25.104,2 26,2.896 26,4 L26,15.758 L28,13.758 L28,4 C28,1.791 26.209,0 24,0" id="Fill-1" fill="#546E7A"></path>
                    <mask id="mask-2" fill="white">
                        <use xlink:href="#path-1"></use>
                    </mask>
                    <g id="Clip-4"></g>
                    <path d="M6,20 L14,20 L14,18 L6,18 L6,20 Z M6,16 L22,16 L22,14 L6,14 L6,16 Z M6,12 L22,12 L22,10 L6,10 L6,12 Z M6,8 L22,8 L22,6 L6,6 L6,8 Z" id="Fill-3" fill="#B0BEC5" mask="url(#mask-2)"></path>
                </g>
                <g id="Group-9" transform="translate(16.000000, 17.000000)">
                    <g id="Group-3" transform="translate(0.000000, 0.408242)">
                        <mask id="mask-4" fill="white">
                            <use xlink:href="#path-3"></use>
                        </mask>
                        <g id="Clip-2"></g>
                        <path d="M5.18523871,2.03395484 C5.18398065,1.36340645 5.33746452,0.702083871 5.63310968,0.100309677 C4.22869032,0.419858065 3.15430323,1.55337419 2.91107742,2.97330968 C2.66785161,4.39282581 3.30317419,5.81947097 4.5214,6.58814839 C4.82291613,6.78566452 5.0024,7.12366452 4.99820645,7.48389032 C4.99820645,8.08063226 4.51427097,8.56456774 3.91752903,8.56456774 L1.7524,8.56456774 C0.784529032,8.56456774 -8.38709677e-05,9.34918065 -8.38709677e-05,10.3170516 C-8.38709677e-05,10.799729 0.191980645,11.2631161 0.533335484,11.604471 C0.874690323,11.9458258 1.33765806,12.1378903 1.82075484,12.1378903 L11.0499161,12.1378903 C11.5221097,12.1378903 11.9745935,11.9500194 12.3084,11.6166323 C12.6422065,11.2828258 12.8296581,10.8303419 12.8296581,10.3581484 C12.8334323,9.88343871 12.6468194,9.42676129 12.3125935,9.09001935 C11.9779484,8.75327742 11.5229484,8.56414839 11.0478194,8.56456774 L8.92923871,8.56456774 C8.33249677,8.56456774 7.84898065,8.08063226 7.84898065,7.48389032 C7.84352903,7.12450323 8.02175484,6.78650323 8.3220129,6.58814839 C8.44698065,6.50930968 8.56649677,6.42292258 8.68014194,6.32940645 C6.64459355,5.90669677 5.18523871,4.11311613 5.18523871,2.03395484" id="Fill-1" fill="#A87DFF" mask="url(#mask-4)"></path>
                    </g>
                    <path d="M11.4139161,14.6661387 C11.807271,14.6661387 12.1268194,14.3470097 12.1268194,13.9536548 C12.1268194,13.5598806 11.807271,13.241171 11.4139161,13.241171 L1.43327097,13.241171 C1.03949677,13.241171 0.720367742,13.5598806 0.720367742,13.9536548 C0.720367742,14.3470097 1.03949677,14.6661387 1.43327097,14.6661387 L11.4139161,14.6661387 Z" id="Fill-4" fill="#A87DFF"></path>
                    <g id="Group-8" transform="translate(4.032258, 0.408242)" fill="#A87DFF">
                        <path d="M4.61504839,0.788974194 C3.76753226,0.112554839 2.65833871,-0.140735484 1.60072581,0.100393548 C0.371,1.59175806 0.371,3.37269355 0.967741935,4.59175806 C1.56490323,5.81040323 2.46774194,6.33116774 4.65195161,6.33116774 C5.47724194,5.65474839 5.95572581,4.64326452 5.95446774,3.57600645 C5.95572581,2.49155484 5.46256452,1.4658129 4.61504839,0.788974194 Z" id="Fill-6"></path>
                    </g>
                </g>
            </g>
        </g>
    </g>
</svg>