<?xml version="1.0" encoding="UTF-8"?>
<svg width="32px" height="32px" viewBox="0 0 32 32" version="1.1" xmlns="http://www.w3.org/2000/svg" xmlns:xlink="http://www.w3.org/1999/xlink">
    <!-- Generator: Sketch 51.1 (57501) - http://www.bohemiancoding.com/sketch -->
    <title>待整改</title>
    <desc>Created with Sketch.</desc>
    <defs>
        <polygon id="path-1" points="0 32 32 32 32 0 0 0"></polygon>
    </defs>
    <g id="中建" stroke="none" stroke-width="1" fill="none" fill-rule="evenodd">
        <g id="10、我的" transform="translate(-39.000000, -180.000000)">
            <g id="待整改" transform="translate(39.000000, 180.000000)">
                <path d="M24,0 L4,0 C1.791,0 0,1.791 0,4 L0,28 C0,30.209 1.791,32 4,32 L15,32 L15,30 L4,30 C2.898,30 2,29.104 2,28 L2,4 C2,2.896 2.898,2 4,2 L24,2 C25.104,2 26,2.896 26,4 L26,15.758 L28,13.758 L28,4 C28,1.791 26.209,0 24,0" id="Fill-1" fill="#546E7A"></path>
                <mask id="mask-2" fill="white">
                    <use xlink:href="#path-1"></use>
                </mask>
                <g id="Clip-4"></g>
                <path d="M6,20 L14,20 L14,18 L6,18 L6,20 Z M6,16 L22,16 L22,14 L6,14 L6,16 Z M6,12 L22,12 L22,10 L6,10 L6,12 Z M6,8 L22,8 L22,6 L6,6 L6,8 Z" id="Fill-3" fill="#B0BEC5" mask="url(#mask-2)"></path>
                <path d="M22.123,28.7051 C22.01,28.8121 21.618,29.0771 21.14,29.3821 L18.549,26.7911 C18.814,26.4271 19.11,26.0601 19.292,25.8791 L25.758,19.4141 L28.586,22.2421 L22.123,28.7051 Z M31.414,18.0001 L30,16.5861 C29.609,16.1951 29.098,16.0001 28.586,16.0001 C28.074,16.0001 27.562,16.1951 27.172,16.5861 L18.585,25.1721 C18.195,25.5621 17,27.0731 17,27.5851 L16,32.0001 L20.414,31.0001 C20.414,31.0001 22.437,29.8051 22.828,29.4141 L31.414,20.8281 C32.195,20.0471 32.195,18.7801 31.414,18.0001 Z" id="Fill-5" fill="#03A9F4" mask="url(#mask-2)"></path>
            </g>
        </g>
    </g>
</svg>