<?xml version="1.0" standalone="no"?><!DOCTYPE svg PUBLIC "-//W3C//DTD SVG 1.1//EN" "http://www.w3.org/Graphics/SVG/1.1/DTD/svg11.dtd"><svg t="1562836682955" class="icon" viewBox="0 0 1024 1024" version="1.1" xmlns="http://www.w3.org/2000/svg" p-id="1705" width="48" height="48" xmlns:xlink="http://www.w3.org/1999/xlink"><defs><style type="text/css"></style></defs><path d="M465.7 449c-4.1-10.7-7.5-19.2-10.1-25.5-2.6-6.4-5.9-12.3-9.8-17.9-3.9-5.5-8.9-10.1-15.2-13.6-6.3-3.5-14.1-5.3-23.5-5.3-9.2 0-17 1.8-23.3 5.3-6.3 3.5-11.4 8.1-15.2 13.8-3.9 5.7-7.5 12.9-10.9 21.5-3.4 8.6-6.3 16-8.7 22.2l-85.1 214.3c-3.5 8.6-6 15.2-7.5 20-1.5 4.8-2.3 9.5-2.3 14 0 7.8 3.3 14.8 9.8 20.9 6.5 6.2 14 9.2 22.5 9.2 10 0 17.2-2.9 21.6-8.7 4.4-5.8 9.7-16.9 15.9-33.4l15.9-42.3H475l15.9 41.4c2.1 5.1 4.7 11 7.6 17.7 3 6.7 5.7 11.6 8.3 14.9 2.6 3.2 5.8 5.8 9.5 7.7 3.8 1.9 8.3 2.8 13.6 2.8 9.1 0 16.8-3.2 23.3-9.6 6.4-6.4 9.6-13.4 9.6-21 0-7.3-3.4-19.1-10.2-35.3L465.7 449zM357.4 593.2L406.7 457l50.2 136.2h-99.5zM738 513h-32v-32c0-17.7-14.3-32-32-32s-32 14.3-32 32v32h-32c-17.7 0-32 14.3-32 32s14.3 32 32 32h32v32c0 17.7 14.3 32 32 32s32-14.3 32-32v-32h32c17.7 0 32-14.3 32-32s-14.3-32-32-32z" p-id="1706"></path><path d="M886.7 247.6L713.4 73.4c-6-6-14.2-9.4-22.7-9.4H192c-35.3 0-64 28.7-64 64v768c0 35.3 28.7 64 64 64h640c35.3 0 64-28.7 64-64V270.2c0-8.5-3.3-16.6-9.3-22.6zM832 864c0 17.7-14.3 32-32 32H224c-17.7 0-32-14.3-32-32V160c0-17.7 14.3-32 32-32h384v160c0 35.3 28.7 64 64 64h160v512zM704 288c-17.7 0-32-14.3-32-32V128l160 160H704z" p-id="1707"></path></svg>