<?xml version="1.0" encoding="UTF-8"?>
<svg width="13px" height="14px" viewBox="0 0 13 14" version="1.1" xmlns="http://www.w3.org/2000/svg" xmlns:xlink="http://www.w3.org/1999/xlink">
    <!-- Generator: Sketch 51.1 (57501) - http://www.bohemiancoding.com/sketch -->
    <title>旁站-旁站人员ico</title>
    <desc>Created with Sketch.</desc>
    <defs>
        <polygon id="path-1" points="0.135522308 0 5.82287486 0 5.82287486 7.04155833 0.135522308 7.04155833"></polygon>
        <polygon id="path-3" points="0 0.2665 12.9998917 0.2665 12.9998917 5.14583333 0 5.14583333"></polygon>
    </defs>
    <g id="中建" stroke="none" stroke-width="1" fill="none" fill-rule="evenodd">
        <g id="19、旁站记录卡片列表" transform="translate(-22.000000, -126.000000)">
            <g id="Group-5" transform="translate(0.000000, 79.000000)">
                <g id="旁站-旁站人员ico" transform="translate(22.000000, 47.000000)">
                    <g id="Group-3" transform="translate(3.520833, 0.000000)">
                        <mask id="mask-2" fill="white">
                            <use xlink:href="#path-1"></use>
                        </mask>
                        <g id="Clip-2"></g>
                        <path d="M1.24691667,1.28012083 C1.69,0.810766667 2.32158333,0.541558333 2.97970833,0.541558333 C3.63025,0.541558333 4.25533333,0.805079167 4.69435417,1.26414167 C5.09708333,1.68501667 5.30454167,2.2312875 5.27908333,2.80220417 C5.27041667,2.99693333 5.10629167,3.89935 4.99822917,4.45889167 C4.80891667,5.4455375 4.17922917,6.49989167 2.97970833,6.49989167 C1.76339583,6.49989167 1.132625,5.40193333 0.961729167,4.4591625 C0.85475,3.89907917 0.691708333,2.99476667 0.680604167,2.79868333 C0.648375,2.240225 0.849604167,1.700725 1.24691667,1.28012083 M0.429,4.5582875 C0.702541667,6.06682917 1.7038125,7.04155833 2.97970833,7.04155833 C4.25939583,7.04155833 5.2365625,6.09120417 5.53014583,4.5615375 C5.5583125,4.41501667 5.8069375,3.12287083 5.82020833,2.82630833 C5.8524375,2.10643333 5.591625,1.41851667 5.08597917,0.88985 C4.545125,0.32435 3.77758333,-0.000108333333 2.97970833,-0.000108333333 C2.17316667,-0.000108333333 1.39804167,0.331120833 0.853125,0.907995833 C0.352354167,1.4382875 0.099125,2.1207875 0.13975,2.82982917 C0.156541667,3.12395417 0.401645833,4.414475 0.429,4.5582875" id="Fill-1" fill="#000000" mask="url(#mask-2)"></path>
                    </g>
                    <g id="Group-6" transform="translate(0.000000, 7.854167)">
                        <mask id="mask-4" fill="white">
                            <use xlink:href="#path-3"></use>
                        </mask>
                        <g id="Clip-5"></g>
                        <path d="M0.580558333,4.60416667 L0.8370375,2.7015625 C0.94835,2.05752083 1.57695417,1.70489583 2.11970417,1.59141667 L6.5001625,0.816833333 L10.8659958,1.584375 C11.21185,1.662375 12.03085,1.92725 12.1613917,2.68775 L12.4194958,4.60416667 L0.580558333,4.60416667 Z M12.6968292,2.60595833 C12.5668292,1.84789583 11.9271208,1.26858333 10.9727042,1.05327083 L6.49989167,0.2665 L2.01705833,1.0595 C1.09189167,1.252875 0.435120833,1.84654167 0.3016,2.61922917 L-0.000108333333,5.14583333 L12.9998917,5.14583333 L12.6968292,2.60595833 Z" id="Fill-4" fill="#000000" mask="url(#mask-4)"></path>
                    </g>
                </g>
            </g>
        </g>
    </g>
</svg>