<?xml version="1.0" encoding="UTF-8"?>
<svg width="13px" height="15px" viewBox="0 0 13 15" version="1.1" xmlns="http://www.w3.org/2000/svg" xmlns:xlink="http://www.w3.org/1999/xlink">
    <!-- Generator: Sketch 51.1 (57501) - http://www.bohemiancoding.com/sketch -->
    <title>旁站-旁站结果</title>
    <desc>Created with Sketch.</desc>
    <defs></defs>
    <g id="中建" stroke="none" stroke-width="1" fill="none" fill-rule="evenodd">
        <g id="19、旁站记录卡片列表" transform="translate(-22.000000, -189.000000)" fill="#000000">
            <g id="Group-5" transform="translate(0.000000, 79.000000)">
                <g id="旁站-旁站结果" transform="translate(22.000000, 110.000000)">
                    <path d="M12.3157895,10.5153511 C12.3157895,12.3375113 10.6275,13.8201758 8.55263158,13.8201758 L2.73684211,13.8201758 L2.73684211,2.40350883 L12.3157895,2.40350883 L12.3157895,10.5153511 Z M0.684210526,12.0175442 L0.684210526,0.600877208 L10.2631579,0.600877208 L10.2631579,1.80263163 L2.05263158,1.80263163 L2.05263158,12.0175442 L0.684210526,12.0175442 Z M10.9473684,1.80263163 L10.9473684,0 L0,0 L0,12.6184214 L2.05263158,12.6184214 L2.05263158,14.421053 L8.55263158,14.421053 C11.0048421,14.421053 13,12.6688951 13,10.5153511 L13,1.80263163 L10.9473684,1.80263163 Z" id="Fill-1"></path>
                    <polygon id="Fill-3" points="5.13157895 5.84210526 9.92105263 5.84210526 9.92105263 5.15789474 5.13157895 5.15789474"></polygon>
                    <polygon id="Fill-5" points="5.13157895 8.57894737 9.92105263 8.57894737 9.92105263 7.89473684 5.13157895 7.89473684"></polygon>
                    <polygon id="Fill-6" points="5.13157895 11.3157895 8.55263158 11.3157895 8.55263158 10.6315789 5.13157895 10.6315789"></polygon>
                </g>
            </g>
        </g>
    </g>
</svg>