<?xml version="1.0" encoding="UTF-8"?>
<svg width="13px" height="13px" viewBox="0 0 13 13" version="1.1" xmlns="http://www.w3.org/2000/svg" xmlns:xlink="http://www.w3.org/1999/xlink">
    <!-- Generator: Sketch 51.1 (57501) - http://www.bohemiancoding.com/sketch -->
    <title>小图标</title>
    <desc>Created with Sketch.</desc>
    <defs></defs>
    <g id="中建" stroke="none" stroke-width="1" fill="none" fill-rule="evenodd">
        <g id="19、旁站记录卡片列表" transform="translate(-22.000000, -215.000000)" fill="#000000">
            <g id="Group-5" transform="translate(0.000000, 79.000000)">
                <g id="小图标" transform="translate(22.000000, 136.000000)">
                    <path d="M11.375,0 L4.0625,0 C3.16509375,0 2.4375,0.72759375 2.4375,1.625 L3.25,1.625 C3.25,1.1765 3.61440625,0.8125 4.0625,0.8125 L11.375,0.8125 C11.8235,0.8125 12.1875,1.1765 12.1875,1.625 L12.1875,8.9375 C12.1875,9.386 11.8235,9.75 11.375,9.75 L11.375,10.5625 C12.2724062,10.5625 13,9.83490625 13,8.9375 L13,1.625 C13,0.72759375 12.2724062,0 11.375,0" id="Fill-1"></path>
                    <path d="M9.75,11.375 C9.75,11.8235 9.386,12.1875 8.9375,12.1875 L1.625,12.1875 C1.17690625,12.1875 0.8125,11.8235 0.8125,11.375 L0.8125,4.0625 C0.8125,3.614 1.17690625,3.25 1.625,3.25 L8.9375,3.25 C9.386,3.25 9.75,3.614 9.75,4.0625 L9.75,11.375 Z M8.9375,2.4375 L1.625,2.4375 C0.72759375,2.4375 0,3.16509375 0,4.0625 L0,11.375 C0,12.2724062 0.72759375,13 1.625,13 L8.9375,13 C9.83490625,13 10.5625,12.2724062 10.5625,11.375 L10.5625,4.0625 C10.5625,3.16509375 9.83490625,2.4375 8.9375,2.4375 Z" id="Fill-3"></path>
                    <path d="M2.4375,10.5625 L5.6875,10.5625 L5.6875,9.75 L2.4375,9.75 L2.4375,10.5625 Z M2.4375,8.9375 L8.125,8.9375 L8.125,8.125 L2.4375,8.125 L2.4375,8.9375 Z M2.4375,7.3125 L8.125,7.3125 L8.125,6.5 L2.4375,6.5 L2.4375,7.3125 Z M2.4375,5.6875 L8.125,5.6875 L8.125,4.875 L2.4375,4.875 L2.4375,5.6875 Z" id="Fill-5"></path>
                </g>
            </g>
        </g>
    </g>
</svg>