<?xml version="1.0" encoding="UTF-8"?>
<svg width="15px" height="15px" viewBox="0 0 15 15" version="1.1" xmlns="http://www.w3.org/2000/svg" xmlns:xlink="http://www.w3.org/1999/xlink">
    <!-- Generator: Sketch 51.1 (57501) - http://www.bohemiancoding.com/sketch -->
    <title>照片picico</title>
    <desc>Created with Sketch.</desc>
    <defs></defs>
    <g id="中建" stroke="none" stroke-width="1" fill="none" fill-rule="evenodd">
        <g id="26、危险源信息" transform="translate(-25.000000, -612.000000)" fill="#333333" fill-rule="nonzero">
            <g id="Group-9" transform="translate(25.000000, 609.000000)">
                <g id="照片picico" transform="translate(0.000000, 3.000000)">
                    <path d="M0,13.4184716 C0,14.2919902 0.711074785,15 1.5815284,15 L13.4184716,15 C14.2919902,15 15,14.2889252 15,13.4184716 L15,1.5815284 C15,0.708009808 14.2889252,0 13.4184716,0 L1.5815284,0 C0.708009808,0 0,0.711074785 0,1.5815284 L0,13.4184716 Z M1.5815284,0.750919493 L13.4184716,0.750919493 C13.8751532,0.750919493 14.2490805,1.12484675 14.2490805,1.5815284 L14.2490805,8.87923989 L11.2086228,5.84184716 C11.0615039,5.69472824 10.8255006,5.69472824 10.6783817,5.84184716 L6.28933388,10.230895 L3.8588067,7.8003678 C3.71168778,7.65324888 3.47568451,7.65324888 3.32856559,7.8003678 L0.750919493,10.3780139 L0.750919493,1.5815284 C0.750919493,1.12484675 1.12484675,0.750919493 1.5815284,0.750919493 Z M4.6495709,6.01042092 C5.70392317,6.01042092 6.5590519,5.15222722 6.5590519,4.10093993 C6.5590519,3.04965264 5.70085819,2.19145893 4.6495709,2.19145893 C3.59828361,2.19145893 2.74008991,3.04965264 2.74008991,4.10093993 C2.74008991,5.15222722 3.59521864,6.01042092 4.6495709,6.01042092 Z" id="picture"></path>
                </g>
            </g>
        </g>
    </g>
</svg>