<?xml version="1.0" encoding="UTF-8"?>
<svg width="20px" height="22px" viewBox="0 0 20 22" version="1.1" xmlns="http://www.w3.org/2000/svg" xmlns:xlink="http://www.w3.org/1999/xlink">
    <!-- Generator: Sketch 51.1 (57501) - http://www.bohemiancoding.com/sketch -->
    <title>生产厂家ico</title>
    <desc>Created with Sketch.</desc>
    <defs>
        <polygon id="path-1" points="0 0.0233193863 19.977378 0.0233193863 19.977378 8.87992577 0 8.87992577"></polygon>
        <polygon id="path-3" points="2.27464738e-06 0.00103187882 19.977378 0.00103187882 19.977378 16.5411381 2.27464738e-06 16.5411381"></polygon>
    </defs>
    <g id="中建" stroke="none" stroke-width="1" fill="none" fill-rule="evenodd">
        <g id="27、新增设备" transform="translate(-20.000000, -560.000000)">
            <g id="Group-3" transform="translate(-1.000000, 552.000000)">
                <g id="生产厂家ico" transform="translate(21.000000, 9.000000)">
                    <g id="Group-3" transform="translate(0.000000, 0.004575)">
                        <mask id="mask-2" fill="white">
                            <use xlink:href="#path-1"></use>
                        </mask>
                        <g id="Clip-2"></g>
                        <path d="M10.2598717,1.15411994 C10.1009038,1.28444073 9.8835258,1.28552859 9.724,1.15741144 L18.9777517,8.59071688 C19.24241,8.80340865 19.6293556,8.76112134 19.8419079,8.49646304 C20.0544881,8.23180474 20.0123124,7.84488703 19.7476541,7.63230683 L10.4938187,0.198973501 C10.2000669,-0.0370376569 9.77119665,-0.0348619247 9.48048536,0.203324965 L0.225004184,7.78985216 C-0.0374783821,8.00505439 -0.075944212,8.39230683 0.139369596,8.65490098 C0.354571827,8.91738354 0.741824268,8.95584937 1.00441841,8.74064714 L10.2598717,1.15411994 Z" id="Fill-1" fill="#F5A623" mask="url(#mask-2)"></path>
                    </g>
                    <g id="Group-6" transform="translate(0.000000, 3.407643)">
                        <mask id="mask-4" fill="white">
                            <use xlink:href="#path-3"></use>
                        </mask>
                        <g id="Clip-5"></g>
                        <path d="M16.442887,14.697735 C16.442887,15.0370656 16.1680474,15.3117378 15.8276848,15.3117378 L12.6011018,15.3117378 L12.6011018,11.7232301 C12.6011018,10.8745272 11.9134868,10.1863543 11.0647838,10.1863543 L8.91259414,10.1863543 C8.06411437,10.1863543 7.37633194,10.8745272 7.37633194,11.7232301 L7.37633194,15.3117378 L4.14969317,15.3117378 C3.80983264,15.3117378 3.53449093,15.0367308 3.53449093,14.697735 L3.53449093,6.64445746 L9.99259414,1.35090098 L16.442887,6.53232357 L16.442887,14.697735 Z M19.7476569,7.61006416 L10.4938215,0.176619247 C10.2000697,-0.0592803347 9.77119944,-0.0571882845 9.48048815,0.181110181 L0.225006974,7.76749791 C-0.0374755927,7.98272803 -0.0759414226,8.37006416 0.139372385,8.63254672 C0.354574616,8.89516876 0.741827057,8.93352301 1.0044212,8.71829289 L2.30509066,7.65212831 L2.30509066,14.697735 C2.30509066,15.7159777 3.13111576,16.5411381 4.14969317,16.5411381 L8.60564854,16.5411381 L8.60564854,11.7232301 C8.60564854,11.5533556 8.74313808,11.4157266 8.91259414,11.4157266 L11.0647838,11.4157266 C11.2342957,11.4157266 11.3717294,11.553272 11.3717294,11.7232301 L11.3717294,16.5411381 L15.8276848,16.5411381 C16.8467643,16.5411381 17.6722873,15.7162008 17.6722873,14.697735 L17.6722873,7.51982706 L18.9777545,8.56850209 C19.2424128,8.78105439 19.6293305,8.73887866 19.8418828,8.47410879 C20.0544909,8.20956206 20.0123152,7.82264435 19.7476569,7.61006416 Z" id="Fill-4" fill="#F5A623" mask="url(#mask-4)"></path>
                    </g>
                </g>
            </g>
        </g>
    </g>
</svg>