<?xml version="1.0" encoding="UTF-8"?>
<svg width="65px" height="51px" viewBox="0 0 65 51" version="1.1" xmlns="http://www.w3.org/2000/svg" xmlns:xlink="http://www.w3.org/1999/xlink">
    <!-- Generator: Sketch 51.1 (57501) - http://www.bohemiancoding.com/sketch -->
    <title>申请中</title>
    <desc>Created with Sketch.</desc>
    <defs></defs>
    <g id="中建" stroke="none" stroke-width="1" fill="none" fill-rule="evenodd">
        <g id="危险作业申请卡片列表" transform="translate(-290.000000, -123.000000)">
            <g id="Group-5" transform="translate(20.000000, 123.000000)">
                <g id="Group-4">
                    <g id="申请中" transform="translate(270.000000, -23.000000)">
                        <g id="Group-4" transform="translate(1.000000, 0.000000)" fill="#FFFFFF" fill-rule="nonzero" stroke="#4A90E2">
                            <circle id="Oval" cx="37" cy="37" r="37"></circle>
                            <circle id="Oval" stroke-width="0.5" cx="37" cy="37" r="32"></circle>
                        </g>
                        <text transform="translate(35.000000, 44.500000) rotate(38.000000) translate(-35.000000, -44.500000) " font-family="PingFangSC-Regular, PingFang SC" font-size="12" font-weight="normal" fill="#4A90E2">
                            <tspan x="17" y="49">申请中</tspan>
                        </text>
                        <g id="Group-7" transform="translate(42.587866, 37.485579) rotate(39.000000) translate(-42.587866, -37.485579) translate(23.587866, 36.485579)" fill="#4A90E2" fill-rule="nonzero">
                            <circle id="Oval-4" cx="1" cy="1" r="1"></circle>
                            <circle id="Oval-4" cx="5" cy="1" r="1"></circle>
                            <circle id="Oval-4" cx="9" cy="1" r="1"></circle>
                            <circle id="Oval-4" cx="13" cy="1" r="1"></circle>
                            <circle id="Oval-4" cx="17" cy="1" r="1"></circle>
                            <circle id="Oval-4" cx="21" cy="1" r="1"></circle>
                            <circle id="Oval-4" cx="25" cy="1" r="1"></circle>
                            <circle id="Oval-4" cx="29" cy="1" r="1"></circle>
                            <circle id="Oval-4" cx="33" cy="1" r="1"></circle>
                            <circle id="Oval-4" cx="37" cy="1" r="1"></circle>
                        </g>
                        <g id="Group-7" transform="translate(28.587866, 52.485579) rotate(39.000000) translate(-28.587866, -52.485579) translate(9.587866, 51.485579)" fill="#4A90E2" fill-rule="nonzero">
                            <circle id="Oval-4" cx="1" cy="1" r="1"></circle>
                            <circle id="Oval-4" cx="5" cy="1" r="1"></circle>
                            <circle id="Oval-4" cx="9" cy="1" r="1"></circle>
                            <circle id="Oval-4" cx="13" cy="1" r="1"></circle>
                            <circle id="Oval-4" cx="17" cy="1" r="1"></circle>
                            <circle id="Oval-4" cx="21" cy="1" r="1"></circle>
                            <circle id="Oval-4" cx="25" cy="1" r="1"></circle>
                            <circle id="Oval-4" cx="29" cy="1" r="1"></circle>
                            <circle id="Oval-4" cx="33" cy="1" r="1"></circle>
                            <circle id="Oval-4" cx="37" cy="1" r="1"></circle>
                        </g>
                    </g>
                </g>
            </g>
        </g>
    </g>
</svg>