<?xml version="1.0" encoding="UTF-8"?>
<svg width="20px" height="22px" viewBox="0 0 20 22" version="1.1" xmlns="http://www.w3.org/2000/svg" xmlns:xlink="http://www.w3.org/1999/xlink">
    <!-- Generator: Sketch 51.1 (57501) - http://www.bohemiancoding.com/sketch -->
    <title>监护人</title>
    <desc>Created with Sketch.</desc>
    <defs></defs>
    <g id="中建" stroke="none" stroke-width="1" fill="none" fill-rule="evenodd">
        <g id="新增危险作业申请02" transform="translate(-20.000000, -457.000000)" fill="#4A90E2">
            <g id="监护人" transform="translate(20.000000, 457.000000)">
                <path d="M6.07666667,7.01275 C6.4975,9.33358333 8.03791667,10.8331667 10.0008333,10.8331667 C11.9695833,10.8331667 13.4729167,9.37108333 13.9245833,7.01775 C13.9679167,6.79233333 14.3504167,4.80441667 14.3708333,4.34816667 C14.4204167,3.24066667 14.0191667,2.18233333 13.24125,1.369 C12.4091667,0.499 11.2283333,-0.000166666667 10.0008333,-0.000166666667 C8.76,-0.000166666667 7.5675,0.509416667 6.72916667,1.39691667 C5.95875,2.21275 5.56916667,3.26275 5.63166667,4.35358333 C5.6575,4.80608333 6.03458333,6.7915 6.07666667,7.01275" id="Fill-1"></path>
                <path d="M19.5335833,16.0925 C19.3335833,14.92625 18.3494167,14.035 16.8810833,13.70375 L9.99983333,12.4933333 L3.10316667,13.7133333 C1.67983333,14.0108333 0.669416667,14.9241667 0.464,16.1129167 L-0.000166666667,20 L19.9998333,20 L19.5335833,16.0925 Z" id="Fill-4"></path>
            </g>
        </g>
    </g>
</svg>