<?xml version="1.0" encoding="UTF-8"?>
<svg width="15px" height="15px" viewBox="0 0 15 15" version="1.1" xmlns="http://www.w3.org/2000/svg" xmlns:xlink="http://www.w3.org/1999/xlink">
    <!-- Generator: Sketch 51.1 (57501) - http://www.bohemiancoding.com/sketch -->
    <title>监管级别ico</title>
    <desc>Created with Sketch.</desc>
    <defs></defs>
    <g id="中建" stroke="none" stroke-width="1" fill="none" fill-rule="evenodd">
        <g id="26、危险源信息" transform="translate(-25.000000, -441.000000)" fill="#333333" fill-rule="nonzero">
            <g id="Group-9" transform="translate(25.000000, 437.000000)">
                <g id="监管级别ico" transform="translate(0.000000, 4.000000)">
                    <path d="M14.1388911,7.73945968 L14.4020557,8.11092919 C14.6131994,8.3995088 14.6897008,8.76790831 14.6131994,9.11788784 C14.5366981,9.46786738 14.3133141,9.76872698 14.0011886,9.94371674 L13.6064416,10.1647564 C13.4197783,10.2660663 13.3187966,10.477896 13.3585773,10.6897257 L13.4411987,11.1348752 C13.5054599,11.4879247 13.4167183,11.8501842 13.1963944,12.1326238 C12.9760705,12.4150634 12.6455846,12.5869832 12.2875583,12.6084732 L11.8377304,12.6330332 C11.6265866,12.6453131 11.4429834,12.7926729 11.3879024,12.9983627 L11.2685603,13.4343021 C11.1216777,13.9776914 10.6259489,14.3553009 10.065959,14.3553009 C9.90377616,14.3553009 9.74465335,14.3215309 9.59165064,14.260131 L9.17242323,14.0882112 C8.97657977,14.0083913 8.74401565,14.0636512 8.60631322,14.223291 L8.31254802,14.5702006 C8.0738638,14.8434302 7.73113774,15 7.37005136,15 C7.01814513,15 6.67847913,14.8495702 6.44285496,14.5855506 L6.1399096,14.247851 C6.00220717,14.0912812 5.766583,14.0390913 5.57379959,14.1219812 L5.15763223,14.3000409 C5.00156947,14.3675808 4.8332665,14.4013508 4.66496352,14.4013508 C4.11109373,14.4013508 3.61842502,14.0298813 3.46542231,13.498772 L3.33996009,13.0628326 C3.28181906,12.8571429 3.09821582,12.712853 2.88401203,12.7036431 L2.43112402,12.6852231 C2.07615774,12.6698731 1.74261185,12.5010233 1.51616784,12.2216537 C1.29278389,11.9422841 1.19792221,11.5800246 1.25606324,11.226975 L1.33256459,10.7787556 C1.36622519,10.5669259 1.2652434,10.3581662 1.07552005,10.2568563 L0.677713015,10.0419566 C0.362527441,9.87003684 0.136083437,9.57531723 0.0534619758,9.2253377 C-0.0291594853,8.87535817 0.0442818134,8.50695866 0.249305439,8.21530905 L0.509410038,7.84383954 C0.634872257,7.66884977 0.631812203,7.43246009 0.506349984,7.26054032 L0.240125277,6.89521081 C0.0289815429,6.60663119 -0.0475198099,6.23823168 0.0289815429,5.88825215 C0.105482896,5.53827262 0.328866846,5.23741302 0.640992365,5.06242325 L1.03573935,4.84138354 C1.22240265,4.73700368 1.32338443,4.52517397 1.28360373,4.31334425 L1.20098227,3.86819484 C1.13672113,3.51514531 1.2254627,3.1528858 1.4457866,2.87044617 C1.66611049,2.58800655 1.99659634,2.41608678 2.35462267,2.39459681 L2.80445062,2.36696684 C3.01559436,2.35468686 3.1991976,2.20732706 3.25427858,2.00163733 L3.37362069,1.56569791 C3.52050328,1.02230864 4.01623205,0.64469914 4.57622195,0.64469914 C4.73840482,0.64469914 4.89752764,0.678469095 5.05053034,0.739869014 L5.46975775,0.911788784 C5.66560122,0.991608678 5.89816533,0.936348752 6.03586776,0.776708964 L6.32963296,0.429799427 C6.56831718,0.156569791 6.91104324,0 7.27212963,0 C7.62403585,0 7.96370186,0.153499795 8.19932602,0.417519443 L8.50227138,0.755218993 C8.63997381,0.911788784 8.87559798,0.963978715 9.06838139,0.881088825 L9.48454875,0.703029063 C9.64061151,0.635489153 9.80891448,0.601719198 9.97721746,0.601719198 C10.5310873,0.601719198 11.023756,0.973188702 11.1767587,1.50429799 L11.3022209,1.94023741 C11.3603619,2.14592714 11.5439652,2.29021695 11.758169,2.29942693 L12.214117,2.31477691 C12.5690833,2.33012689 12.9026292,2.49897667 13.1290732,2.7783463 C13.3524571,3.05771592 13.4473188,3.41997544 13.3891778,3.77302497 L13.3126764,4.22124437 C13.2790158,4.43307409 13.3799976,4.64183381 13.569721,4.74314368 L13.967528,4.95804339 C14.2827136,5.12689316 14.5091576,5.42468277 14.5917791,5.7746623 C14.6744005,6.12464183 14.6009592,6.49304134 14.3959356,6.78469095 L14.135831,7.15616046 C14.0103688,7.33115023 14.0134288,7.56753991 14.1388911,7.73945968 Z M9.97109735,5.96193205 L8.53593197,5.85755219 L7.9943024,4.52210397 C7.88108039,4.24580434 7.61791574,4.06774458 7.32109049,4.06774458 C7.02426524,4.06774458 6.76110059,4.24580434 6.64787859,4.52210397 L6.10624901,5.85755219 L4.67108363,5.96193205 C4.37425838,5.98342202 4.126394,6.17990176 4.03459238,6.46234138 C3.94279075,6.74478101 4.03153232,7.0517806 4.25797633,7.24519034 L5.35653575,8.1753991 L5.01380969,9.57531723 C4.95872872,9.79328694 5.00768958,10.0204666 5.14539202,10.1954564 C5.28309445,10.3735162 5.49729824,10.477896 5.71762214,10.477896 C5.85226452,10.477896 5.98384684,10.4410561 6.1001289,10.3673762 L7.32109049,9.60601719 L8.54205208,10.3673762 C8.65833414,10.4410561 8.78991647,10.477896 8.92455885,10.477896 C9.14488274,10.477896 9.35908653,10.3735162 9.49678897,10.1954564 C9.6344914,10.0204666 9.68345227,9.79328694 9.62837129,9.57531723 L9.28564523,8.1753991 L10.3842047,7.24519034 C10.6106487,7.05485059 10.6993902,6.747851 10.6075886,6.46234138 C10.515787,6.17990176 10.2648625,5.98342202 9.97109735,5.96193205 Z" id="sticker-3"></path>
                </g>
            </g>
        </g>
    </g>
</svg>