<?xml version="1.0" encoding="UTF-8"?>
<svg width="19px" height="25px" viewBox="0 0 19 25" version="1.1" xmlns="http://www.w3.org/2000/svg" xmlns:xlink="http://www.w3.org/1999/xlink">
    <!-- Generator: Sketch 51.1 (57501) - http://www.bohemiancoding.com/sketch -->
    <title>第一名ico</title>
    <desc>Created with Sketch.</desc>
    <defs>
        <polygon id="path-1" points="7.53968254e-06 0.0347730159 18.9789266 0.0347730159 18.9789266 19.0136996 7.53968254e-06 19.0136996"></polygon>
    </defs>
    <g id="中建" stroke="none" stroke-width="1" fill="none" fill-rule="evenodd">
        <g id="27、排名" transform="translate(-18.000000, -135.000000)">
            <g id="第一名ico" transform="translate(18.000000, 135.000000)">
                <path d="M3,9.37131086 C3,12.891337 5.85472789,15.7423981 9.37126614,15.7423981 C12.891337,15.7423981 15.742577,12.8876702 15.742577,9.37131086 C15.742577,5.85106111 12.8878491,3 9.37126614,3 C5.85106111,3 3,5.85106111 3,9.37131086" id="Fill-1" fill="#FAF1CE"></path>
                <path d="M9.53700479,3.51620332 C6.18758278,3.51620332 3.4604059,6.24342413 3.4604059,9.59284614 C3.4604059,12.9420924 6.18758278,15.6692693 9.53700479,15.6692693 C12.886295,15.6692693 15.6136476,12.9420924 15.6136476,9.59284614 C15.6136476,6.24342413 12.886295,3.51620332 9.53700479,3.51620332 M9.53700479,17.0927802 C5.40041896,17.0927802 2.03693889,13.729432 2.03693889,9.59284614 C2.03693889,5.45626032 5.40041896,2.09273631 9.53700479,2.09273631 C13.6736345,2.09273631 17.0369389,5.45626032 17.0369389,9.59284614 C17.0369389,13.729432 13.6736345,17.0927802 9.53700479,17.0927802" id="Fill-3" fill="#F5A623"></path>
                <polygon id="Fill-5" fill="#F5A623" points="16.210325 15.9947165 14.7596524 16.0097581 14.7567119 23.1513831 9.49103532 21.6222601 4.22222976 23.1332879 4.22222976 15.9947165 2.77159484 15.9947165 2.77159484 24.9215875 9.49103532 22.9673018 16.210325 24.9215875"></polygon>
                <g id="Group-9" transform="translate(0.000000, 0.002940)">
                    <mask id="mask-2" fill="white">
                        <use xlink:href="#path-1"></use>
                    </mask>
                    <g id="Clip-8"></g>
                    <path d="M9.49103532,19.0136996 C4.25845794,19.0136996 7.53968254e-06,14.7552492 7.53968254e-06,9.52270952 C7.53968254e-06,4.29013214 4.25845794,0.0347730159 9.49103532,0.0347730159 C11.1949659,0.0347730159 12.8687,0.493185714 14.3254044,1.35877897 C14.6359639,1.54270952 14.7355254,1.94076706 14.5545353,2.25143968 C14.3706048,2.5620369 13.969456,2.66159841 13.6618369,2.48060833 C12.4042556,1.7357631 10.9627437,1.34068373 9.49103532,1.34068373 C4.97619802,1.34068373 1.30282698,5.01390397 1.30282698,9.52870357 C1.30282698,14.0435409 4.97619802,17.7167988 9.49103532,17.7167988 C14.0056841,17.7167988 17.6790929,14.0435409 17.6790929,9.52870357 C17.6790929,7.91830278 17.2115194,6.35913413 16.3279817,5.02298929 C16.0745353,4.64001111 15.7881405,4.27509048 15.474452,3.94040397 C15.2301663,3.67798532 15.2422298,3.26477302 15.5046484,3.0204496 C15.7669163,2.77612619 16.1801286,2.78822738 16.4244143,3.05064603 C16.7893349,3.43965595 17.1211187,3.86191587 17.4137337,4.3052869 C18.4390929,5.85533254 18.9789341,7.66187817 18.9789341,9.52870357 C18.9818746,14.7581897 14.7234242,19.0136996 9.49103532,19.0136996" id="Fill-7" fill="#F5A623" mask="url(#mask-2)"></path>
                </g>
                <path d="M9.57,6.574 L10.146,6.574 L10.146,13 L9.408,13 L9.408,7.474 C9.003,7.888 8.499,8.176 7.896,8.356 L7.896,7.618 C8.184,7.537 8.49,7.411 8.796,7.231 C9.102,7.033 9.354,6.817 9.57,6.574 Z" id="1" fill="#F5A623"></path>
            </g>
        </g>
    </g>
</svg>