<?xml version="1.0" encoding="UTF-8"?>
<svg width="20px" height="22px" viewBox="0 0 20 22" version="1.1" xmlns="http://www.w3.org/2000/svg" xmlns:xlink="http://www.w3.org/1999/xlink">
    <!-- Generator: Sketch 51.1 (57501) - http://www.bohemiancoding.com/sketch -->
    <title>规格型号ico</title>
    <desc>Created with Sketch.</desc>
    <defs></defs>
    <g id="中建" stroke="none" stroke-width="1" fill="none" fill-rule="evenodd">
        <g id="27、新增设备" transform="translate(-20.000000, -294.000000)" fill="#4A90E2">
            <g id="规格型号ico" transform="translate(20.000000, 293.000000)">
                <path d="M19.1666667,13.4166667 C19.1666667,14.5654167 18.2320833,15.5 17.0833333,15.5 L2.91666667,15.5 C1.76791667,15.5 0.833333333,14.5654167 0.833333333,13.4166667 L0.833333333,10.5 L19.1666667,10.5 L19.1666667,13.4166667 Z M14.1666667,9.66666667 L14.1666667,4.66666667 L13.3333333,4.66666667 L13.3333333,9.66666667 L0,9.66666667 L0,13.4166667 C0,15.025 1.30833333,16.3333333 2.91666667,16.3333333 L17.0833333,16.3333333 C18.6916667,16.3333333 20,15.025 20,13.4166667 L20,9.66666667 L14.1666667,9.66666667 Z" id="Fill-1"></path>
                <path d="M3.33333333,13.8333333 C3.79333333,13.8333333 4.16666667,13.46 4.16666667,13 C4.16666667,12.54 3.79333333,12.1666667 3.33333333,12.1666667 C2.87333333,12.1666667 2.5,12.54 2.5,13 C2.5,13.46 2.87333333,13.8333333 3.33333333,13.8333333" id="Fill-3"></path>
            </g>
        </g>
    </g>
</svg>