<?xml version="1.0" encoding="UTF-8"?>
<svg width="55px" height="55px" viewBox="0 0 55 55" version="1.1" xmlns="http://www.w3.org/2000/svg" xmlns:xlink="http://www.w3.org/1999/xlink">
    <!-- Generator: Sketch 51.1 (57501) - http://www.bohemiancoding.com/sketch -->
    <title>设备飞检</title>
    <desc>Created with Sketch.</desc>
    <defs>
        <polygon id="path-1" points="14 15.0001083 39.9998375 15.0001083 39.9998375 41 14 41"></polygon>
    </defs>
    <g id="中建" stroke="none" stroke-width="1" fill="none" fill-rule="evenodd">
        <g id="功能页" transform="translate(-129.000000, -122.000000)">
            <g id="Group-7" transform="translate(0.000000, 77.000000)">
                <g id="设备飞检" transform="translate(129.000000, 45.000000)">
                    <rect id="Rectangle-5" fill="#8992F8" fill-rule="nonzero" x="0" y="0" width="55" height="55" rx="27.5"></rect>
                    <mask id="mask-2" fill="white">
                        <use xlink:href="#path-1"></use>
                    </mask>
                    <g id="Clip-2"></g>
                    <path d="M38.3585875,39.3594 C37.6148792,40.1014833 36.4058792,40.1009417 35.6627125,39.3594 L30.6950875,34.4459417 L33.3898792,31.7565667 L38.3585875,36.6711083 C38.7187958,37.0302333 38.9165042,37.5079833 38.9165042,38.015525 C38.9165042,38.5230667 38.7187958,39.000275 38.3585875,39.3594 Z M28.3854208,30.6093167 L29.7341708,29.263275 L32.0438375,31.5686083 L30.6956292,32.9151917 L28.3854208,30.6093167 Z M18.0049208,39.439025 C17.3679208,40.0749417 16.3306292,40.0749417 15.6936292,39.439025 C15.3848792,39.1313583 15.2153375,38.7218583 15.2153375,38.2869 C15.2153375,37.8514 15.3848792,37.4424417 15.6936292,37.134775 L24.5417542,28.3034417 L27.2316708,25.6184 L29.8750042,22.9799417 L29.8110875,20.8934417 C29.7818375,19.9303583 30.2720458,19.016025 31.0910458,18.5063167 L34.7516292,16.2286083 L35.3133375,16.7892333 L32.4289625,19.6681917 L35.5034625,22.737275 L38.3878375,19.857775 L38.7810875,20.2504833 L36.6041292,24.0139833 C36.0933375,24.8974417 35.1356708,25.4169 34.1211292,25.3692333 L32.1917125,25.2798583 L29.7341708,27.732525 L26.8519625,30.6093167 L18.0049208,39.439025 Z M19.2415458,21.4822333 L16.3165458,20.7526083 L15.1546708,16.942525 L15.8615458,16.237275 L19.8390042,17.2296083 L20.3839208,20.3149417 L25.6976708,25.6184 L24.5417542,26.7726917 L19.2415458,21.4822333 Z M33.3037542,30.290275 L32.7328375,30.8611917 L30.4410458,28.567775 L32.5421708,26.4661083 L33.9830042,26.533275 C35.3983792,26.5993583 36.7184208,25.876775 37.4269208,24.6488167 L39.9998375,20.1881917 L38.2659625,18.453775 L35.4037958,21.3164833 L33.8752125,19.7873583 L36.7368375,16.9241083 L34.8144625,15.0001083 L30.4589208,17.7165667 C29.3219625,18.4256083 28.6416292,19.698525 28.6827958,21.0386083 L28.7320875,22.6468167 L26.4370458,24.9434833 L21.4038792,19.9076083 L20.7999208,16.4859 L15.5885458,15.1821083 L13.9998375,16.7713583 L15.5181292,21.7628167 L18.7220875,22.5644833 L23.7682542,27.6133583 L14.9916292,36.3948583 C14.4819208,36.9045667 14.2018792,37.5821917 14.2018792,38.30315 C14.2018792,39.0241083 14.4819208,39.7017333 14.9916292,40.2114417 C15.5170458,40.7368583 16.2071292,41.0001083 16.8977542,41.0001083 C17.5878375,41.0001083 18.2779208,40.7368583 18.8033375,40.2114417 L27.5815875,31.4288583 L29.8733792,33.7217333 L29.1085458,34.4871083 L34.8041708,40.1334417 C35.3821292,40.7114 36.1404625,41.0001083 36.8998792,41.0001083 C37.6587542,41.0001083 38.4181708,40.7108583 38.9961292,40.1323583 C39.5567542,39.5717333 39.8655042,38.8264 39.8655042,38.0334 C39.8655042,37.2404 39.5567542,36.494525 38.9945042,35.932275 L33.3037542,30.290275 Z" id="Fill-1" fill="#FFFFFF" mask="url(#mask-2)"></path>
                </g>
            </g>
        </g>
    </g>
</svg>