<?xml version="1.0" encoding="UTF-8"?>
<svg width="55px" height="55px" viewBox="0 0 55 55" version="1.1" xmlns="http://www.w3.org/2000/svg" xmlns:xlink="http://www.w3.org/1999/xlink">
    <!-- Generator: Sketch 51.1 (57501) - http://www.bohemiancoding.com/sketch -->
    <title>设备维护</title>
    <desc>Created with Sketch.</desc>
    <defs>
        <polygon id="path-1" points="0.000142857143 0.000142857143 13.7142857 0.000142857143 13.7142857 13.7142857 0.000142857143 13.7142857"></polygon>
    </defs>
    <g id="中建" stroke="none" stroke-width="1" fill="none" fill-rule="evenodd">
        <g id="6、功能页" transform="translate(-129.000000, -283.000000)">
            <g id="设备维护" transform="translate(129.000000, 283.000000)">
                <rect id="Rectangle-5" fill="#4A90E2" fill-rule="nonzero" x="0" y="0" width="55" height="55" rx="27.5"></rect>
                <g id="Group-9" transform="translate(19.000000, 17.000000)" fill="#FFFFFF">
                    <path d="M3.31578945,21.7894737 C2.00984209,21.7894737 0.947368421,20.727 0.947368421,19.4210526 L0.947368421,15.1578947 L17.0526314,15.1578947 L17.0526314,19.4210526 C17.0526314,20.727 15.9901577,21.7894737 14.6842104,21.7894737 L3.31578945,21.7894737 Z M0.947368421,14.2105263 L17.0526316,14.2105263 L17.0526316,8.05263158 L0.947368421,8.05263158 L0.947368421,14.2105263 Z M0.947368421,7.10526316 L17.0526316,7.10526316 L17.0526316,0.947368421 L0.947368421,0.947368421 L0.947368421,7.10526316 Z M0,0 L0,19.4210526 C0,21.2494737 1.48736842,22.7368421 3.31578947,22.7368421 L14.6842105,22.7368421 C16.5126316,22.7368421 18,21.2494737 18,19.4210526 L18,0 L0,0 Z" id="Fill-1"></path>
                    <path d="M14.2105263,11.8455632 C14.7334737,11.8455632 15.1578947,11.4216158 15.1578947,10.8981947 C15.1578947,10.3752474 14.7334737,9.95082632 14.2105263,9.95082632 C13.6875789,9.95082632 13.2631579,10.3752474 13.2631579,10.8981947 C13.2631579,11.4216158 13.6875789,11.8455632 14.2105263,11.8455632" id="Fill-5"></path>
                    <path d="M14.2105263,4.73684211 C14.7334737,4.73684211 15.1578947,4.31242105 15.1578947,3.78947368 C15.1578947,3.26652632 14.7334737,2.84210526 14.2105263,2.84210526 C13.6875789,2.84210526 13.2631579,3.26652632 13.2631579,3.78947368 C13.2631579,4.31242105 13.6875789,4.73684211 14.2105263,4.73684211" id="Fill-7"></path>
                </g>
                <g id="Group-6" transform="translate(29.000000, 28.000000)">
                    <g id="Group-5">
                        <mask id="mask-2" fill="white">
                            <use xlink:href="#path-1"></use>
                        </mask>
                        <g id="Clip-4"></g>
                        <path d="M12.3088571,8.16971429 L13.7142857,8.06628571 L13.7142857,5.57771429 L12.3088571,5.47485714 C11.9548571,5.44885714 11.6514286,5.22942857 11.51,4.88571429 C11.3737143,4.558 11.4331429,4.188 11.6642857,3.91971429 L12.5854286,2.85257143 L10.8257143,1.09285714 L9.75857143,2.01428571 C9.49085714,2.24571429 9.12028571,2.30514286 8.77685714,2.16257143 C8.44371429,2.02571429 8.22942857,1.736 8.20371429,1.38742857 L8.1,0 L5.61228571,0 L5.50857143,1.45714286 C5.48457143,1.786 5.28742857,2 4.98742857,2.28571429 L4.98142857,2.28571429 L4.92171429,2.24228571 C4.59514286,2.37828571 4.22428571,2.284 3.95514286,2.05171429 L2.88714286,1.11114286 L1.12742857,2.86171429 L2.04971429,3.926 C2.28114286,4.194 2.34028571,4.562 2.19857143,4.904 C2.06371429,5.23142857 1.76028571,5.44971429 1.40628571,5.47571429 L0,5.57771429 L0,8.06628571 L1.40571429,8.16971429 C1.75971429,8.19571429 2.06314286,8.41542857 2.204,8.758 C2.34,9.08571429 2.28057143,9.45571429 2.04914286,9.72371429 L1.12714286,10.7917143 L2.88657143,12.5514286 L3.95457143,11.6297143 C4.22228571,11.3982857 4.59257143,11.3394286 4.93571429,11.4817143 C5.25742857,11.6137143 5.48228571,11.9317143 5.50885714,12.2908571 L5.61142857,13.7142857 L8.10057143,13.7142857 L8.20371429,12.2914286 C8.22971429,11.9374286 8.45457143,11.6231429 8.778,11.4902857 L8.82857143,11.4657143 C9.14828571,11.348 9.50142857,11.41 9.75885714,11.6322857 L10.8262857,12.5522857 L12.5857143,10.792 L11.6648571,9.72514286 C11.4331429,9.45685714 11.374,9.08657143 11.5168571,8.74228571 C11.6514286,8.41514286 11.9548571,8.19571429 12.3088571,8.16971429" id="Fill-3" fill="#FFFFFF" mask="url(#mask-2)"></path>
                    </g>
                    <path d="M6.9,9.3 C5.52125,9.3 4.4,8.17833333 4.4,6.8 C4.4,5.42166667 5.52125,4.3 6.9,4.3 C8.27875,4.3 9.4,5.42166667 9.4,6.8 C9.4,8.17833333 8.27875,9.3 6.9,9.3" id="Fill-1" fill="#4A90E2"></path>
                </g>
            </g>
        </g>
    </g>
</svg>