<?xml version="1.0" encoding="UTF-8"?>
<svg width="20px" height="22px" viewBox="0 0 20 22" version="1.1" xmlns="http://www.w3.org/2000/svg" xmlns:xlink="http://www.w3.org/1999/xlink">
    <!-- Generator: Sketch 51.1 (57501) - http://www.bohemiancoding.com/sketch -->
    <title>设备代码ico</title>
    <desc>Created with Sketch.</desc>
    <defs></defs>
    <g id="中建" stroke="none" stroke-width="1" fill="none" fill-rule="evenodd">
        <g id="27、新增设备" transform="translate(-20.000000, -254.000000)" fill="#4A90E2">
            <g id="设备代码ico" transform="translate(20.000000, 254.000000)">
                <path d="M19.1666667,14.9166667 C19.1666667,16.525 17.8579167,17.8333333 16.25,17.8333333 L3.75,17.8333333 C2.14208333,17.8333333 0.833333333,16.525 0.833333333,14.9166667 L0.833333333,2.83333333 L6.86041667,2.83333333 L8.52708333,5.33333333 L19.1666667,5.33333333 L19.1666667,14.9166667 Z M8.97291667,4.5 L7.30625,2 L0,2 L0,14.9166667 C0,16.9841667 1.68208333,18.6666667 3.75,18.6666667 L16.25,18.6666667 C18.3179167,18.6666667 20,16.9841667 20,14.9166667 L20,4.5 L8.97291667,4.5 Z" id="Fill-1"></path>
                <polygon id="Fill-1" points="3 8.4994 17.061 8.4994 17.061 6.9994 3 6.9994"></polygon>
                <polygon id="Fill-2" points="3 12.1294 17 12.1294 17 10.6294 3 10.6294"></polygon>
                <polygon id="Fill-3" points="3 15.5 15.001 15.5 15.001 14 3 14"></polygon>
            </g>
        </g>
    </g>
</svg>