<?xml version="1.0" encoding="UTF-8"?>
<svg width="32px" height="32px" viewBox="0 0 32 32" version="1.1" xmlns="http://www.w3.org/2000/svg" xmlns:xlink="http://www.w3.org/1999/xlink">
    <!-- Generator: Sketch 51.1 (57501) - http://www.bohemiancoding.com/sketch -->
    <title>隐患预警</title>
    <desc>Created with Sketch.</desc>
    <defs>
        <polygon id="path-1" points="0.000234670029 0 31.999 0 31.999 31.9998 0.000234670029 31.9998"></polygon>
    </defs>
    <g id="中建" stroke="none" stroke-width="1" fill="none" fill-rule="evenodd">
        <g id="10、我的" transform="translate(-37.000000, -344.000000)">
            <g id="隐患预警" transform="translate(37.000000, 344.000000)">
                <g id="Group-6">
                    <g id="Group-3">
                        <mask id="mask-2" fill="white">
                            <use xlink:href="#path-1"></use>
                        </mask>
                        <g id="Clip-2"></g>
                        <path d="M29.7009,29.0508 C29.3399,29.6368 28.6869,29.9998 27.9999,29.9998 L3.9999,29.9998 C3.3119,29.9998 2.6599,29.6368 2.2989,29.0528 C1.9309,28.4568 1.8979,27.7308 2.2109,27.1058 L14.2109,3.1058 C14.5509,2.4238 15.2359,1.9998 15.9999,1.9998 C16.7629,1.9998 17.4489,2.4238 17.7889,3.1058 L29.7889,27.1038 C30.1009,27.7308 30.0679,28.4568 29.7009,29.0508 M31.5779,26.2108 L19.5779,2.2108 C18.8999,0.8558 17.5149,-0.0002 15.9999,-0.0002 C14.4839,-0.0002 13.0989,0.8558 12.4219,2.2108 L0.4219,26.2108 C-0.1971,27.4508 -0.1311,28.9238 0.5969,30.1038 C1.3259,31.2808 2.6129,31.9998 3.9999,31.9998 L27.9999,31.9998 C29.3869,31.9998 30.6739,31.2808 31.4019,30.1038 C32.1309,28.9238 32.1969,27.4508 31.5779,26.2108" id="Fill-1" fill="#B0BEC5" mask="url(#mask-2)"></path>
                    </g>
                    <path d="M15.9997,24 C14.8957,24 13.9997,24.896 13.9997,26 C13.9997,27.104 14.8957,28 15.9997,28 C17.1037,28 17.9997,27.104 17.9997,26 C17.9997,24.896 17.1037,24 15.9997,24 M15.9997,8 C14.8957,8 13.9997,8.896 13.9997,10 L13.9997,20 C13.9997,21.104 14.8957,22 15.9997,22 C17.1037,22 17.9997,21.104 17.9997,20 L17.9997,10 C17.9997,8.896 17.1037,8 15.9997,8" id="Fill-4" fill="#FFA000"></path>
                </g>
            </g>
        </g>
    </g>
</svg>