<?xml version="1.0" encoding="UTF-8"?>
<svg width="20px" height="22px" viewBox="0 0 20 22" version="1.1" xmlns="http://www.w3.org/2000/svg" xmlns:xlink="http://www.w3.org/1999/xlink">
    <!-- Generator: Sketch 51.1 (57501) - http://www.bohemiancoding.com/sketch -->
    <title>隐患类型-ico</title>
    <desc>Created with Sketch.</desc>
    <defs>
        <polygon id="path-1" points="4.66666686 2.66666667 14.6584449 2.66666667 14.6584449 17.6828382 4.66666686 17.6828382"></polygon>
    </defs>
    <g id="中建" stroke="none" stroke-width="1" fill="none" fill-rule="evenodd">
        <g id="15、安全整改" transform="translate(-29.000000, -382.000000)">
            <g id="隐患类型-ico" transform="translate(29.000000, 383.000000)">
                <path d="M4.58701046,1.19810428 C2.69204251,1.19810428 1.15006797,2.74007882 1.15006797,4.63504677 L1.15006797,15.4386571 C1.15006797,17.3336251 2.69204251,18.8755996 4.58701046,18.8755996 L15.3906208,18.8755996 C17.2855888,18.8755996 18.8275633,17.3336251 18.8275633,15.4386571 L18.8275633,4.63504677 C18.8275633,2.74007882 17.2855888,1.19810428 15.3906208,1.19810428 L4.58701046,1.19810428 Z M14.9831872,20.0256648 L4.99444413,20.0256648 C2.24128771,20.0256648 2.79329591e-06,17.7843799 2.79329591e-06,15.0312235 L2.79329591e-06,5.04248045 C2.79329591e-06,2.28932402 2.24128771,0.0480391061 4.99444413,0.0480391061 L14.9831872,0.0480391061 C17.7363436,0.0480391061 19.9776285,2.28932402 19.9776285,5.04248045 L19.9776285,15.0312235 C19.9776285,17.7843799 17.7363436,20.0256648 14.9831872,20.0256648 Z" id="Fill-1" fill="#D81E06"></path>
                <mask id="mask-2" fill="white">
                    <use xlink:href="#path-1"></use>
                </mask>
                <g id="Clip-2"></g>
                <path d="M8.42500139,17.6828424 C8.38341144,17.6828424 8.35211437,17.6718173 8.33127755,17.6515453 C8.18548257,17.6092859 8.13343236,17.5266081 8.17502232,17.4015662 L9.14374616,11.6838047 L4.92556625,11.6838047 C4.82144491,11.6838047 4.7484742,11.6420474 4.70680056,11.5587838 C4.64437378,11.4760642 4.65475035,11.382424 4.73809763,11.2775704 L11.2370934,2.7788675 C11.3204616,2.65384658 11.4141018,2.63374198 11.5183068,2.71635704 C11.6224073,2.73719386 11.6745621,2.82112692 11.6745621,2.96633612 L10.7058382,8.68426499 L14.4241227,8.68426499 C14.5282441,8.68426499 14.6011311,8.72650349 14.6428884,8.80920223 C14.6636416,8.89248675 14.6636416,8.9862106 14.6428884,9.0904993 L8.64376709,17.5891813 C8.58125662,17.6515453 8.5083696,17.6828424 8.42500139,17.6828424" id="Fill-1" fill="#D81E06" mask="url(#mask-2)"></path>
            </g>
        </g>
    </g>
</svg>