<?xml version="1.0" encoding="UTF-8"?>
<svg width="55px" height="55px" viewBox="0 0 55 55" version="1.1" xmlns="http://www.w3.org/2000/svg" xmlns:xlink="http://www.w3.org/1999/xlink">
    <!-- Generator: Sketch 51.1 (57501) - http://www.bohemiancoding.com/sketch -->
    <title>安全评价ico</title>
    <desc>Created with Sketch.</desc>
    <defs>
        <polygon id="path-1" points="0 0 23.9869519 0 23.9869519 29.1271401 0 29.1271401"></polygon>
    </defs>
    <g id="中建" stroke="none" stroke-width="1" fill="none" fill-rule="evenodd">
        <g id="6、功能页" transform="translate(-112.000000, -441.000000)">
            <g id="安全评价" transform="translate(112.000000, 441.000000)">
                <g id="Group-3">
                    <rect id="Rectangle-5" fill="#67C6B0" fill-rule="nonzero" x="0" y="0" width="55" height="55" rx="27.5"></rect>
                    <g transform="translate(16.000000, 13.000000)">
                        <mask id="mask-2" fill="white">
                            <use xlink:href="#path-1"></use>
                        </mask>
                        <g id="Clip-2"></g>
                        <path d="M4.8541815,8.7336053 C4.42788361,8.7336053 4.08144742,9.08004149 4.08144742,9.50633938 L4.08144742,17.2831645 C4.08144742,17.7094624 4.42788361,18.0559216 4.8541815,18.0559216 L7.19220513,18.0559216 C8.1647433,18.0559216 9.41708557,18.6421043 10.0365036,19.3947635 L11.5885405,21.2732077 C11.7051409,21.4131098 11.8483849,21.4897447 11.9949479,21.4897447 C12.1414417,21.4897447 12.2847087,21.4131098 12.401263,21.2732077 L13.953323,19.3947635 C14.572741,18.6454463 15.8250833,18.0559216 16.7975984,18.0559216 L19.1356681,18.0559216 C19.561943,18.0559216 19.9083791,17.7094624 19.9083791,17.2831645 L19.9083791,9.50633938 C19.9083791,9.08004149 19.561943,8.7336053 19.1356681,8.7336053 L4.8541815,8.7336053 Z M15.0656664,13.4064189 C15.0656664,13.849104 15.3018173,14.2581158 15.6851997,14.4794007 C16.0685359,14.7007087 16.5408608,14.7007087 16.9241971,14.4794007 C17.3074641,14.2581158 17.5436151,13.849104 17.5436151,13.4064189 C17.5436151,12.7221665 16.9889162,12.1673984 16.3047099,12.1673984 C15.6204345,12.1673984 15.0656664,12.7221665 15.0656664,13.4064189 M6.44955575,13.4064189 C6.44955575,14.0906482 7.00423163,14.6454394 7.68848401,14.6454394 C8.37271334,14.6454394 8.92748142,14.0906482 8.92748142,13.4064189 C8.92748142,12.7221665 8.37271334,12.1673984 7.68848401,12.1673984 C7.00423163,12.1673984 6.44955575,12.7221665 6.44955575,13.4064189 M10.7559274,13.4064189 C10.7559274,13.849104 10.9921014,14.2581158 11.3754376,14.4794007 C11.7587969,14.7007087 12.2310066,14.7007087 12.6143659,14.4794007 C12.9977252,14.2581158 13.2338761,13.849104 13.2338761,13.4064189 C13.2338761,12.7221665 12.6792002,12.1673984 11.9949479,12.1673984 C11.3106263,12.1673984 10.7559274,12.7221665 10.7559274,13.4064189 M11.9949479,22.801943 C11.4587335,22.801943 10.9424788,22.5488747 10.5793789,22.109255 L9.02731893,20.2340605 C8.65433132,19.781119 7.77841083,19.3714618 7.19220513,19.3714618 L4.8541815,19.3714618 C3.70509479,19.3714618 2.76922616,18.4355702 2.76922616,17.2865065 L2.76922616,9.50633938 C2.76922616,8.35725266 3.70509479,7.42138404 4.8541815,7.42138404 L19.142306,7.42138404 C20.2913696,7.42138404 21.2272844,8.35725266 21.2272844,9.50633938 L21.2272844,17.2831645 C21.2272844,18.4322512 20.2913696,19.3681199 19.142306,19.3681199 L16.8042593,19.3681199 C16.2180766,19.3681199 15.3421562,19.781119 14.9691455,20.2307416 L13.4170856,22.109255 C13.0473247,22.5488747 12.5310931,22.801943 11.9949479,22.801943 Z M23.9869818,4.20551444 L22.8188535,4.20551444 C22.8188535,4.20551444 20.0930781,4.12765348 17.3673027,3.03725775 C14.5634952,1.86912941 12.6945326,0.545108021 12.6945326,0.545108021 L11.9934845,-4.27807486e-06 L11.2926075,0.467247059 C11.2926075,0.467247059 9.42343102,1.79126845 6.61979465,2.95939679 C3.89401925,4.12765348 1.16828663,4.12765348 1.16828663,4.12765348 L-1.28342246e-05,4.12765348 L-1.28342246e-05,16.4326374 C-1.28342246e-05,22.5851936 7.78792299,29.1271401 11.9934845,29.1271401 C16.199046,29.1271401 23.9869818,22.5851936 23.9869818,16.4326374 L23.9869818,4.20551444 Z" id="Fill-1" fill="#FFFFFF" mask="url(#mask-2)"></path>
                    </g>
                </g>
            </g>
        </g>
    </g>
</svg>