<?xml version="1.0" encoding="UTF-8"?>
<svg width="105px" height="75px" viewBox="0 0 105 75" version="1.1" xmlns="http://www.w3.org/2000/svg" xmlns:xlink="http://www.w3.org/1999/xlink">
    <!-- Generator: Sketch 51.1 (57501) - http://www.bohemiancoding.com/sketch -->
    <title>首页-在建</title>
    <desc>Created with Sketch.</desc>
    <defs></defs>
    <g id="中建" stroke="none" stroke-width="1" fill="none" fill-rule="evenodd">
        <g id="首页" transform="translate(-17.000000, -172.000000)">
            <g id="首页-在建" transform="translate(17.000000, 172.000000)">
                <rect id="Rectangle-2" fill="#EDF3FF" fill-rule="nonzero" x="0" y="0" width="105" height="75" rx="8"></rect>
                <path d="M91.6666667,72.3125 L94.3333333,72.3125 L94.3333333,53.5 L91.6666667,53.5 L91.6666667,72.3125 Z M89,72.3125 L81,72.3125 L81,64.25 L78.3333333,64.25 L78.3333333,72.3125 L70.3333333,72.3125 L70.3333333,34.6875 L89,34.6875 L89,72.3125 Z M59.6666667,72.3125 L67.6666667,72.3125 L67.6666667,42.75 L59.6666667,42.75 L59.6666667,72.3125 Z M94.3333333,50.8125 L91.6666667,50.8125 L91.6666667,34.6875 C91.6666667,33.2026562 90.4733333,32 89,32 L70.3333333,32 C68.86,32 67.6666667,33.2026562 67.6666667,34.6875 L67.6666667,40.0625 L59.6666667,40.0625 C58.1933333,40.0625 57,41.2651562 57,42.75 L57,72.3125 C57,73.7973438 58.1933333,75 59.6666667,75 L94.3333333,75 C95.8066667,75 97,73.7973438 97,72.3125 L97,53.5 C97,52.0151563 95.8066667,50.8125 94.3333333,50.8125 Z" id="Fill-1" fill="#D7E0F4"></path>
            </g>
        </g>
    </g>
</svg>