<?xml version="1.0" encoding="UTF-8"?>
<svg width="105px" height="75px" viewBox="0 0 105 75" version="1.1" xmlns="http://www.w3.org/2000/svg" xmlns:xlink="http://www.w3.org/1999/xlink">
    <!-- Generator: Sketch 51.1 (57501) - http://www.bohemiancoding.com/sketch -->
    <title>首页-电梯</title>
    <desc>Created with Sketch.</desc>
    <defs>
        <rect id="path-1" x="0" y="0" width="105" height="75" rx="8"></rect>
    </defs>
    <g id="中建" stroke="none" stroke-width="1" fill="none" fill-rule="evenodd">
        <g id="首页" transform="translate(-251.000000, -172.000000)">
            <g id="首页-电梯" transform="translate(251.000000, 172.000000)">
                <mask id="mask-2" fill="white">
                    <use xlink:href="#path-1"></use>
                </mask>
                <use id="Mask" fill="#FFF7EA" fill-rule="nonzero" xlink:href="#path-1"></use>
                <g id="Group-6" mask="url(#mask-2)" fill="#F8E4C3">
                    <g transform="translate(63.000000, 29.000000)">
                        <path d="M26.3333333,46 L7.66666667,46 C5.09346667,46 3,43.757 3,41 L3,28 L31,28 L31,41 C31,43.757 28.9065333,46 26.3333333,46 Z M3,26 L31,26 L31,2 L3,2 L3,26 Z M0,0 L0,41 C0,44.86 3.141,48 7,48 L27,48 C30.859,48 34,44.86 34,41 L34,0 L0,0 Z" id="Fill-1"></path>
                        <polygon id="Fill-3" points="27 24 29 24 29 18 27 18"></polygon>
                        <polygon id="Fill-5" points="27 36 29 36 29 30 27 30"></polygon>
                    </g>
                </g>
            </g>
        </g>
    </g>
</svg>