<?xml version="1.0" encoding="UTF-8"?>
<svg width="32px" height="32px" viewBox="0 0 32 32" version="1.1" xmlns="http://www.w3.org/2000/svg" xmlns:xlink="http://www.w3.org/1999/xlink">
    <!-- Generator: Sketch 51.1 (57501) - http://www.bohemiancoding.com/sketch -->
    <title>验收预警</title>
    <desc>Created with Sketch.</desc>
    <defs>
        <polygon id="path-1" points="0 0.000282352941 11.8068353 0.000282352941 11.8068353 8.81251765 0 8.81251765"></polygon>
    </defs>
    <g id="中建" stroke="none" stroke-width="1" fill="none" fill-rule="evenodd">
        <g id="10、我的" transform="translate(-128.000000, -344.000000)">
            <g id="验收预警" transform="translate(128.000000, 344.000000)">
                <path d="M28,26 L16,26 L4,26 C2.896,26 2,25.104 2,24 C2,23.012 2.736,22.16 3.711,22.021 C4.322,21.934 4.857,21.568 5.164,21.033 C5.695,20.104 6.168,18.484 6.688,16.617 C7.613,13.285 9.012,8.25 12.863,6.6 C13.727,6.23 14.215,5.313 14.041,4.391 C14.014,4.242 14,4.115 14,4 C14,2.896 14.896,2 16,2 C17.104,2 18,2.896 18,4 C18,4.115 17.986,4.242 17.959,4.391 C17.785,5.313 18.273,6.23 19.137,6.6 C22.988,8.25 24.387,13.285 25.314,16.621 C25.832,18.484 26.305,20.104 26.836,21.033 C27.143,21.568 27.678,21.934 28.289,22.021 C29.264,22.16 30,23.012 30,24 C30,25.104 29.104,26 28,26 M28.572,20.041 C28.121,19.252 27.6,17.375 27.24,16.082 C26.225,12.428 24.652,6.787 19.924,4.762 C19.971,4.514 20,4.26 20,4 C20,1.791 18.209,0 16,0 C13.791,0 12,1.791 12,4 C12,4.26 12.029,4.514 12.076,4.762 C7.348,6.787 5.775,12.428 4.76,16.082 C4.4,17.375 3.879,19.252 3.428,20.041 C1.49,20.318 0,21.984 0,24 C0,26.209 1.791,28 4,28 L12,28 C12,30.209 13.791,32 16,32 C18.209,32 20,30.209 20,28 L28,28 C30.209,28 32,26.209 32,24 C32,21.984 30.51,20.318 28.572,20.041" id="Fill-1" fill="#FFA000"></path>
                <g id="Group-3" transform="translate(10.000000, 13.000000)">
                    <mask id="mask-2" fill="white">
                        <use xlink:href="#path-1"></use>
                    </mask>
                    <g id="Clip-2"></g>
                    <path d="M11.3933647,0.413647059 C10.8434824,-0.137647059 9.94842353,-0.137647059 9.39712941,0.413647059 L4.40654118,5.40423529 L2.4096,3.408 C1.85830588,2.85670588 0.963952941,2.85670588 0.413364706,3.408 C-0.137929412,3.95929412 -0.137929412,4.85435294 0.413364706,5.40423529 L3.40771765,8.39929412 C3.95830588,8.95058824 4.85265882,8.95058824 5.40465882,8.39929412 L11.3933647,2.40988235 C11.9446588,1.85858824 11.9446588,0.963529412 11.3933647,0.413647059" id="Fill-1" fill="#8BC34A" mask="url(#mask-2)"></path>
                </g>
            </g>
        </g>
    </g>
</svg>